<?xml version="1.0" encoding="utf-8"?>
<!-- Generator: Adobe Illustrator 21.0.0, SVG Export Plug-In . SVG Version: 6.00 Build 0)  -->
<svg version="1.1" id="Layer_1" xmlns="http://www.w3.org/2000/svg" xmlns:xlink="http://www.w3.org/1999/xlink" x="0px" y="0px"
	 viewBox="0 0 400 400" style="enable-background:new 0 0 400 400;" xml:space="preserve">
<style type="text/css">
	.st0{fill:#20B53C;}
	.st1{fill:#05A4DD;}
	.st2{fill:#04A4DD;}
	.st3{fill:#21B53C;}
	.st4{fill:#03A4DD;}
	.st5{fill:#21B53D;}
	.st6{fill:#08A5DD;}
	.st7{fill:#22B63E;}
	.st8{fill:#07A5DD;}
</style>
<g>
	<g>
		<g>
			<path class="st0" d="M274.6,197.2c0.5-2.8,1-5.4,1.5-8c0.3-1.3-0.1-1.8-1.5-1.7c-5.3,0.1-10.6,0.1-15.9,0c-1.3,0-1.9,0.4-2.1,1.8
				c-0.6,4.2-1.5,8.3-2.2,12.5c-0.3,1.6-0.8,2.5-2.6,2.8l-11.4,1.9c-2.1,0.3-2.4-0.5-2-2.3l2.6-13.8c0.4-2.1-0.2-2.8-2.3-2.8
				l-3.8,0.1c-2.2,0-2.5-0.7-2.4-2.6c0.2-3,0.3-5.9,0.3-8.9c0-1.5,0.6-2.1,2.1-2.1c2.2,0.1,4.5-0.1,6.7,0.1c1.7,0.1,2.4-0.5,2.6-2.2
				c0.4-3.1,1.1-6.2,2.2-9.1c4.9-12.1,18-14.9,27.7-11.2c1.2,0.5,1.7,1.1,1.1,2.5c-1.3,3-2.5,5.9-3.7,9c-0.6,1.6-1.7,1.5-3,1.2
				c-5.4-1.3-10.3,3.6-9.1,9c0.2,1,2.2,0.8,2.2,0.8c9.7,0.1,19.4,0,29.1,0c3.3,0,3.3,0,2.8,3.3c-0.9,5-1.9,10.1-2.6,15.1
				c-0.2,1.7-1,2.1-2.5,2.3C283.9,195.4,279.4,196.3,274.6,197.2z"/>
		</g>
		<g>
			<path class="st1" d="M51.8,186.7c0-3.1,0.1-6.3,0-9.4c-0.1-2.2,0.7-3,2.8-2.7c0.4,0.1,0.9,0.1,1.3,0c2.1-0.3,3,0.4,3.4,2.6
				c0.6,3.6,1.2,3.7,3.9,1.1c7-6.7,17.1-6.3,23.4,0.9c2,2.3,2.5,2.4,4.7,0c4.9-5.3,10.9-6.7,17.7-5.1c6.5,1.5,11.3,7.5,11.7,14.2
				c0.1,1.2-0.3,1.7-1.5,2c-2.6,0.6-5.2,1.4-7.7,2.3c-1.4,0.5-1.4-0.2-1.6-1.2c-0.7-5.3-2.7-7.8-6.6-8.2c-4.6-0.5-8.4,1.9-10.2,6.3
				c-1,2.4-1.2,4.9-1.3,7.4c-0.1,1.2-0.4,1.8-1.7,1.9c-2.3,0.2-4.6,0.6-6.9,1c-1.7,0.3-2.5-0.1-2.3-2.1c0.2-2.1,0.1-4.1,0-6.2
				c-0.2-4.5-2.2-7.3-5.7-8.2c-4-1-8.3,0.9-10.4,4.5c-1.8,3.1-2,6.5-2,9.9c0,1.5-0.3,2.1-2,1.8c-2.3-0.5-4.6-0.9-6.9-1.1
				c-1.6-0.2-2-1-2-2.5C51.8,193,51.8,189.9,51.8,186.7z"/>
		</g>
		<g>
			<path class="st2" d="M170.8,218.6c0,2.2-0.5,3-2.8,3c-2.7,0-4.7-0.1-5.1-3.4c-0.2-2-1.4-1.7-2.6-0.6c-5.5,5.3-12.1,5.8-19.1,4.3
				c-7.3-1.6-11.1-7.1-10.8-14.9c0.3-7.1,5-12.4,12.4-13.4c8.7-1.1,17.3-1.2,25.9,1.3c1.6,0.5,2.1,1,2.1,2.7L170.8,218.6z
				 M148.4,213.1c7.2-0.1,11.6-3.9,11.6-9.8c0-0.9,0.1-1.8-1.3-1.7c-4.2,0.1-8.4,0-12.6,0.2c-2.1,0.1-4,1.2-4.7,3.4
				c-0.6,2.1-0.5,4.1,1.1,5.8C144.2,212.9,146.5,213.1,148.4,213.1z"/>
		</g>
		<g>
			<path class="st3" d="M326.5,221.6c-4,0-4,0-5-3.4l-1.2-5.2c0,0-0.4-3.6-2.2-3.6c-1.5,0-2.5,2.2-2.9,3.1c-0.1,0.2-3.5,6.3-3.5,6.3
				c-1.5,2.8-2.2,2.8-7.6,2.8l-10.5,0c-1.4,0-1.9-0.7-1-1.8l14.7-19.2c1.7-1.9,3.2-2.1,5.5-1.8l16.8,3.5c1.5,0.4,2.5,1.1,3,2.7
				c1.7,4.8,3.5,9.6,5.4,14.3c0.9,2.3-1,2.3-2.8,2.3L326.5,221.6z"/>
		</g>
		<g>
			<path class="st0" d="M313.2,174.1c2.1,0,2.4,0,3.7,3.3c0.5,1.4,2.9,7.9,2.9,7.9c0.6,1.8,1.2,1.5,2.1,0.3c2.2-3.2,4.5-6.3,6.5-9.6
				c1-1.6,1.4-2,4-2c0,0,8.3,0.1,12.4,0c1.8,0,2.2,0.6,1.1,2.1c-3.9,5.3-7.8,10.6-11.7,15.8c-0.6,0.8-1.4,1.4-2.1,2.1
				c-2.5,2.3-4.8,2.9-8.9,2.5l-12.5-1.9c-1.8-0.4-3.1-1.4-3.8-2.9l-6.3-15.9c-0.5-1.1,0-1.7,1.2-1.7
				C303.9,174.1,311.1,174.1,313.2,174.1z"/>
		</g>
		<g>
			<path class="st4" d="M196.8,221.9c0.1,8.8-3.2,14.5-10.1,19c-4.4,2.8-4.3,2.9-6.8-1.7c-0.1-0.2-0.2-0.3-0.3-0.5
				c-2.4-4.4-2.4-3.4,1.3-6c3.5-2.5,5.2-5.7,5.1-10.1c-0.1-6.4,0-12.8-0.1-19.2c0-1.8,0.7-2,2.1-1.4l6.1,2.2c2,1,2.7,1.3,2.7,3.8
				L196.8,221.9z"/>
		</g>
		<g>
			<path class="st4" d="M223.9,204.3c0,1.6-0.2,2.3-2.2,2.2c-8.6-0.4-8.6-0.4-8.6-3.5l0-16.5c0-1.7-0.3-2.4-2.2-2.3
				c-3.6,0.1-3.6,0.1-3.6-2.1l0-5.5c0-1.9,0-2.5,2.4-2.5l12,0c1.7-0.1,2.2,0.6,2.2,2.2C223.8,180.8,223.9,204.3,223.9,204.3z"/>
		</g>
		<g>
			<path class="st1" d="M170.7,190.3c0.2,1.1-0.2,1.4-1.3,1.1c-2.9-0.7-5.8-1.2-8.7-1.8c-0.5-0.1-1.1-0.3-1.4-0.8
				c-2.9-5.2-7.8-5.1-12.8-4.8c-2.4,0.1-4.8,0.7-7.1,1.5c-1.9,0.7-2.6,0.1-3.1-1.7c-0.4-1.7-1-3.4-1.5-5.2c-0.3-1.1-0.1-1.9,1.1-2.3
				c7.3-2.4,14.7-3.4,22.3-1.2C165.5,177.4,170.4,183.4,170.7,190.3z"/>
		</g>
		<g>
			<path class="st5" d="M272.6,221.6c-1.8,0-2.2-0.4-2-2c1-5.6,1.9-11.1,2.9-16.7c0.1-0.8,0.6-1.2,1.4-1.4l12.9-2.6
				c1.4-0.2,1.9,0.1,1.6,1.7c-1.1,6-2.2,12-3.2,18c-0.4,2.4-2.2,3-3.7,3L272.6,221.6z"/>
		</g>
		<g>
			<path class="st4" d="M196.8,201l-9.7-3.7c-1.1-0.5-1.1-1.3-1.1-2.2c0-3-0.1-5.9,0-8.9c0.1-1.7-0.5-2.1-2.1-2.1
				c-3.7,0-3.7-0.6-3.7-4.5c0-0.2,0-3.3,0-3.5c0-2.2,0.1-2.2,3.2-2.2c3,0,8.4,0,11.3,0c1.3,0,2.1,0.3,2.1,1.8
				C196.8,184,196.8,192.7,196.8,201z"/>
		</g>
		<g>
			<path class="st2" d="M120.8,208c0,3.7-0.1,7.4,0,11c0.1,2.1-0.7,2.7-2.7,2.6c-2.1-0.1-4.1-0.1-6.2,0c-1.5,0.1-2.1-0.6-2-2.1
				c0-6.8,0-13.7,0-20.5c0-1.2,0.6-1.7,1.6-2.1c2.4-1,5-1.5,7.5-2.3c1.4-0.4,1.9,0,1.9,1.5C120.7,200.1,120.8,204,120.8,208z"/>
		</g>
		<g>
			<path class="st5" d="M297.3,157.7c-0.1,6.3-3.8,10-9.6,9.9c-4.7-0.1-7.5-3.1-7.4-8c0.2-6.1,3.6-9.8,9.1-9.7
				C294.5,149.9,297.4,152.8,297.3,157.7z"/>
		</g>
		<g>
			<path class="st6" d="M51.8,211.9c0-2.4,0.1-4.9,0-7.3c-0.1-1.7,0.5-2.3,2.2-1.9c2.4,0.4,4.8,0.8,7.2,1.1c1.1,0.1,1.5,0.6,1.5,1.7
				c0,4.7,0,9.3,0,14c0,1.5-0.5,2.1-2.1,2.1c-2.2-0.1-4.5-0.1-6.7,0c-1.6,0.1-2.1-0.7-2-2.1C51.8,217,51.8,214.5,51.8,211.9z"/>
		</g>
		<g>
			<path class="st1" d="M91.6,212.1c0,2.4-0.1,4.8,0,7.3c0.1,1.6-0.4,2.3-2.1,2.2c-2.1-0.1-4.3-0.1-6.5,0c-1.8,0.1-2.3-0.7-2.3-2.4
				c0.1-4.4,0.1-8.8,0-13.2c0-1.4,0.5-1.9,1.8-2c2.6-0.3,5.2-0.6,7.7-1c1.3-0.2,1.4,0.4,1.4,1.3C91.6,206.9,91.6,209.5,91.6,212.1z"
				/>
		</g>
		<g>
			<path class="st7" d="M243.2,221.6c-1.9,0-3.8,0-5.7,0c-1.6,0-1.9-1.2-1.8-2.2c0,0,1.1-6.8,1.2-6.9c0.3-2.3,2.6-2.2,3.3-2.3
				l11-1.4c1.1-0.1,1.9,0.2,1.6,1.6c-0.6,3.1-1.1,6.2-1.7,9.3c-0.2,1.4-0.9,2-2.4,1.9C247,221.5,245.1,221.6,243.2,221.6z"/>
		</g>
		<g>
			<path class="st1" d="M190.3,164.4c-4,0-6.4-2.5-6.4-6.7c0.1-4,2.5-6.3,6.5-6.3c4,0,6.3,2.4,6.4,6.4
				C196.8,161.9,194.3,164.4,190.3,164.4z"/>
		</g>
		<g>
			<path class="st1" d="M217.5,151.4c4,0,6.3,2.4,6.3,6.5c0,4.2-2.4,6.6-6.5,6.5c-3.9,0-6.3-2.5-6.4-6.5
				C210.9,153.9,213.4,151.4,217.5,151.4z"/>
		</g>
		<g>
			<path class="st8" d="M213.1,215.4c0-4.2,0-5.2,2.3-5.3l6.5,0.6c2,0.5,2,1.5,2,5.3c0,5.6,0,5.6-5.5,5.6
				C212.2,221.5,213.2,222.5,213.1,215.4z"/>
		</g>
	</g>
	<g>
		<g>
			<path class="st1" d="M74,243.7c-7,0-14.5-1.1-22.9-3.7l1.4-4.3c21.8,7,37.6,2.2,54.3-2.9c19-5.8,38.6-11.8,68.7-2.1l-1.4,4.3
				c-28.7-9.2-47.6-3.5-66,2.1C97,240.4,86.3,243.7,74,243.7z"/>
		</g>
		<g>
			<path class="st1" d="M228.5,250.1c-10.5,0-22.3-1.9-36.3-7.2l1.6-4.2c32.4,12.1,52.5,5.7,71.9-0.5c21.9-7,44.5-14.2,83.2,6
				l-2.1,4c-37-19.3-57.7-12.7-79.7-5.7C255.3,246.3,243.3,250.1,228.5,250.1z"/>
		</g>
	</g>
</g>
</svg>
