<?xml version="1.0" encoding="utf-8"?>
<!-- Generator: Adobe Illustrator 21.0.0, SVG Export Plug-In . SVG Version: 6.00 Build 0)  -->
<svg version="1.1" id="sewage_x5F_leakage" xmlns="http://www.w3.org/2000/svg" xmlns:xlink="http://www.w3.org/1999/xlink" x="0px"
	 y="0px" viewBox="0 0 841.9 595.3" style="enable-background:new 0 0 841.9 595.3;" xml:space="preserve">
<style type="text/css">
	.st0{fill:#ECF6EA;}
	.st1{fill:#398BCA;}
	.st2{fill:#FFFFFF;}
	.st3{fill:none;}
	.st4{fill:#3B89C9;}
</style>
<g>
	<g>
		<circle class="st0" cx="420.9" cy="297.6" r="86.1"/>
	</g>
	<g>
		<path class="st1" d="M420.9,397.6c-55.1,0-100-44.9-100-100s44.9-100,100-100s100,44.9,100,100S476.1,397.6,420.9,397.6z
			 M420.9,201.2c-53.2,0-96.4,43.3-96.4,96.4c0,53.2,43.3,96.4,96.4,96.4c53.2,0,96.4-43.3,96.4-96.4
			C517.4,244.5,474.1,201.2,420.9,201.2z"/>
	</g>
	<g>
		<g>
			<path class="st2" d="M420.5,305.5c0,9.6-7.8,17.5-17.5,17.5c-9.6,0-17.5-7.8-17.5-17.5v-13.6h-7.8v13.6c0,14,11.4,25.4,25.4,25.4
				c14,0,25.4-11.4,25.4-25.4v-13.6h-7.9V305.5z"/>
		</g>
		<g>
			<path class="st2" d="M402.6,334.2c0.2,0.2,0.3,0.5,0.5,0.7c0.1-0.2,0.3-0.5,0.5-0.7c-0.2,0-0.3,0-0.5,0
				C402.9,334.2,402.7,334.2,402.6,334.2z"/>
		</g>
		<g>
			<rect x="415.6" y="286.8" class="st3" width="16" height="1.8"/>
		</g>
		<g>
			<rect x="373.6" y="286.8" class="st3" width="16" height="1.8"/>
		</g>
		<g>
			<rect x="459.3" y="286.8" class="st3" width="16" height="1.8"/>
		</g>
		<g>
			<path class="st3" d="M463.3,283.4h7.9v-13.6c0-14-11.4-25.4-25.4-25.4c-14,0-25.4,11.4-25.4,25.4v13.6h7.8v-13.6
				c0-9.6,7.8-17.5,17.5-17.5c9.6,0,17.5,7.8,17.5,17.5V283.4z"/>
		</g>
		<g>
			<path class="st2" d="M403.1,349c-0.5,0.6-1,1.2-1.6,1.8c-2,2.1-4.3,4.5-4.3,8c0,3.3,2.7,5.9,5.9,5.9c3.3,0,5.9-2.7,5.9-5.9
				c0-3.4-2.3-5.8-4.3-8C404.1,350.1,403.5,349.5,403.1,349z"/>
		</g>
		<g>
			<polygon class="st4" points="373.6,286.8 389.6,286.8 389.6,288.6 392.9,288.6 392.9,283.4 388.8,283.4 388.8,242.8 385.5,242.8 
				385.5,283.4 377.7,283.4 377.7,242.8 374.4,242.8 374.4,283.4 370.3,283.4 370.3,288.6 373.6,288.6 			"/>
		</g>
		<g>
			<path class="st4" d="M474.5,283.4v-13.6c0-15.8-12.9-28.7-28.7-28.7c-15.8,0-28.7,12.9-28.7,28.7v13.6h-4.8v5.1h3.3v-1.8h16v1.8
				h3.3v-5.1h-3.3v-13.6c0-7.8,6.4-14.2,14.2-14.2c7.8,0,14.2,6.4,14.2,14.2v13.6H456v8.5h3.9v40.7h3.3v-40.7h7.9v40.7h3.3v-40.7
				h4.1v-8.5H474.5z M445.8,252.3c-9.6,0-17.5,7.8-17.5,17.5v13.6h-7.8v-13.6c0-14,11.4-25.4,25.4-25.4c14,0,25.4,11.4,25.4,25.4
				v13.6h-7.9v-13.6C463.3,260.2,455.4,252.3,445.8,252.3z M475.3,288.6h-16v-1.8h16V288.6z"/>
		</g>
		<g>
			<path class="st4" d="M415.6,288.6h-3.3v3.3h4.8v13.6c0,7.8-6.4,14.2-14.2,14.2c-7.8,0-14.2-6.4-14.2-14.2v-13.6h4.1v-3.3h-3.3
				h-16h-3.3v3.3h4.1v13.6c0,13.2,9,24.4,21.2,27.7c0.1,0,0.1,0.1,0.2,0.1c3.3,0.9,5.6,3.9,5.6,7.4c0,0.9,0.7,1.7,1.7,1.7
				c0.9,0,1.7-0.7,1.7-1.7c0-3.4,2.3-6.5,5.6-7.4c0.1,0,0.1,0,0.2-0.1c12.2-3.3,21.2-14.4,21.2-27.7v-13.6h3.2v-3.3h-3.3H415.6z
				 M403.1,334.9c-0.1-0.2-0.3-0.5-0.5-0.7c0.2,0,0.3,0,0.5,0c0.2,0,0.3,0,0.5,0C403.4,334.4,403.2,334.7,403.1,334.9z M428.4,305.6
				c0,14-11.4,25.4-25.4,25.4c-14,0-25.4-11.4-25.4-25.4v-13.6h7.8v13.6c0,9.6,7.8,17.5,17.5,17.5c9.6,0,17.5-7.8,17.5-17.5v-13.6
				h7.9V305.6z"/>
		</g>
		<g>
			<path class="st4" d="M404.7,345.2c0-0.9-0.7-1.7-1.7-1.7c-0.9,0-1.7,0.7-1.7,1.7c0,0.7-1.2,2-2.3,3.2c-2.2,2.3-5.3,5.5-5.3,10.2
				c0,5.1,4.2,9.3,9.3,9.3s9.3-4.2,9.3-9.3c0-4.7-3-7.9-5.3-10.2C405.9,347.2,404.7,346,404.7,345.2z M403.1,364.6
				c-3.3,0-5.9-2.7-5.9-5.9c0-3.4,2.3-5.8,4.3-8c0.6-0.6,1.1-1.2,1.6-1.8c0.5,0.6,1,1.2,1.6,1.8c2,2.1,4.3,4.5,4.3,8
				C409,362,406.3,364.6,403.1,364.6z"/>
		</g>
	</g>
</g>
</svg>
