<?xml version="1.0" encoding="utf-8"?>
<!-- Generator: Adobe Illustrator 21.0.0, SVG Export Plug-In . SVG Version: 6.00 Build 0)  -->
<svg version="1.1" id="lack_x5F_of_x5F_water" xmlns="http://www.w3.org/2000/svg" xmlns:xlink="http://www.w3.org/1999/xlink"
	 x="0px" y="0px" viewBox="0 0 841.9 595.3" style="enable-background:new 0 0 841.9 595.3;" xml:space="preserve">
<style type="text/css">
	.st0{fill:#ECF6EA;}
	.st1{fill:#398BCA;}
	.st2{fill:none;}
	.st3{fill:#FFFFFF;}
	.st4{fill:#3B89C9;}
</style>
<g>
	<g>
		<circle class="st0" cx="420.9" cy="297.6" r="86.1"/>
	</g>
	<g>
		<path class="st1" d="M420.9,397.6c-55.1,0-100-44.9-100-100s44.9-100,100-100s100,44.9,100,100S476.1,397.6,420.9,397.6z
			 M420.9,201.2c-53.2,0-96.4,43.3-96.4,96.4c0,53.2,43.3,96.4,96.4,96.4c53.2,0,96.4-43.3,96.4-96.4
			C517.4,244.5,474.1,201.2,420.9,201.2z"/>
	</g>
	<g>
		<g>
			<rect x="426.1" y="292.7" class="st2" width="2" height="17.5"/>
		</g>
		<g>
			<rect x="364.6" y="251.6" class="st2" width="17.5" height="2"/>
		</g>
		<g>
			<path class="st3" d="M431,278.4h-2.6v3.4c0-0.5,0.2-0.9,0.5-1.3L431,278.4z"/>
		</g>
		<g>
			<path class="st3" d="M463.4,327.9v17.7h10.2v-17.7c0-17.6-14.3-31.9-31.9-31.9h-10v10.3h10.1C453.7,306.3,463.4,316,463.4,327.9z
				"/>
		</g>
		<g>
			<rect x="413.8" y="292.7" class="st2" width="2" height="17.5"/>
		</g>
		<g>
			<path class="st3" d="M378.5,274.9v-17.7h-10.2v17.7c0,17.6,14.3,31.9,31.9,31.9h10v-10.3h-10.1
				C388.2,296.5,378.5,286.8,378.5,274.9z"/>
		</g>
		<g>
			<path class="st4" d="M419.5,289h-6.1h-3.2v3.9h-10.1c-9.9,0-18-8.1-18-18v-17.7h3.6V248h-24.8v9.3h3.7v17.7
				c0,19.6,15.9,35.5,35.5,35.5h10v3.3h3.2h6.1V289z M364.6,253.6v-2h17.5v2H364.6z M410.2,306.9h-10c-17.6,0-31.9-14.3-31.9-31.9
				v-17.7h10.2v17.7c0,11.9,9.7,21.6,21.6,21.6h10.1V306.9z M415.8,310.2h-2v-17.5h2V310.2z"/>
		</g>
		<g>
			<path class="st4" d="M477.3,345.6v-17.7c0-19.6-15.9-35.5-35.5-35.5h-10V289h-3.3h-5.9v24.8h5.9h3.3V310h10.1c9.9,0,18,8.1,18,18
				v17.7h-3.6v9.3h24.8v-9.3H477.3z M428.1,310.2h-2v-17.5h2V310.2z M441.8,306.3h-10.1V296h10c17.6,0,31.9,14.3,31.9,31.9v17.7
				h-10.2v-17.7C463.4,316,453.7,306.3,441.8,306.3z M477.3,351.2h-17.5v-2h17.5V351.2z"/>
		</g>
		<g>
			<path class="st4" d="M420.9,283.6c1,0,1.8-0.8,1.8-1.8v-9.5c0-1-0.8-1.8-1.8-1.8c-1,0-1.8,0.8-1.8,1.8v9.5
				C419.1,282.8,419.9,283.6,420.9,283.6z"/>
		</g>
		<g>
			<path class="st4" d="M410.3,283.1c0.4,0.4,0.8,0.5,1.3,0.5c0.5,0,0.9-0.2,1.3-0.5c0.7-0.7,0.7-1.9,0-2.6l-6.7-6.7
				c-0.7-0.7-1.9-0.7-2.6,0c-0.7,0.7-0.7,1.9,0,2.6L410.3,283.1z"/>
		</g>
		<g>
			<path class="st4" d="M438.2,276.3c0.7-0.7,0.7-1.9,0-2.6c-0.7-0.7-1.9-0.7-2.6,0l-4.7,4.7h5.1L438.2,276.3z"/>
		</g>
		<g>
			<path class="st4" d="M430.2,283.6c0.5,0,0.9-0.2,1.3-0.5l4.7-4.7H431l-2.1,2.1c-0.4,0.4-0.5,0.8-0.5,1.3c0,0.5,0.2,0.9,0.5,1.3
				C429.3,283.4,429.7,283.6,430.2,283.6z"/>
		</g>
		<g>
			<path class="st4" d="M420.9,319.2c-1,0-1.8,0.8-1.8,1.8v9.5c0,1,0.8,1.8,1.8,1.8c1,0,1.8-0.8,1.8-1.8v-9.5
				C422.7,320,421.9,319.2,420.9,319.2z"/>
		</g>
		<g>
			<path class="st4" d="M410.3,319.8l-6.7,6.7c-0.7,0.7-0.7,1.9,0,2.6c0.4,0.4,0.8,0.5,1.3,0.5c0.5,0,0.9-0.2,1.3-0.5l6.7-6.7
				c0.7-0.7,0.7-1.9,0-2.6C412.1,319.1,411,319.1,410.3,319.8z"/>
		</g>
		<g>
			<path class="st4" d="M435.6,329.1c0.4,0.4,0.8,0.5,1.3,0.5c0.5,0,0.9-0.2,1.3-0.5c0.7-0.7,0.7-1.9,0-2.6l-6.7-6.7
				c-0.7-0.7-1.9-0.7-2.6,0c-0.4,0.4-0.5,0.8-0.5,1.3c0,0.5,0.2,0.9,0.5,1.3L435.6,329.1z"/>
		</g>
	</g>
</g>
</svg>
