<?xml version="1.0" encoding="utf-8"?>
<!-- Generator: Adobe Illustrator 21.0.0, SVG Export Plug-In . SVG Version: 6.00 Build 0)  -->
<svg version="1.1" id="meter_x5F_problem" xmlns="http://www.w3.org/2000/svg" xmlns:xlink="http://www.w3.org/1999/xlink" x="0px"
	 y="0px" viewBox="0 0 841.9 595.3" style="enable-background:new 0 0 841.9 595.3;" xml:space="preserve">
<style type="text/css">
	.st0{fill:#ECF6EA;}
	.st1{fill:#398BCA;}
	.st2{fill:#FFFFFF;}
	.st3{fill:#3B89C9;}
</style>
<g>
	<g>
		<circle class="st0" cx="420.9" cy="297.6" r="86.1"/>
	</g>
	<g>
		<path class="st1" d="M420.9,397.6c-55.1,0-100-44.9-100-100s44.9-100,100-100s100,44.9,100,100S476.1,397.6,420.9,397.6z
			 M420.9,201.2c-53.2,0-96.4,43.3-96.4,96.4c0,53.2,43.3,96.4,96.4,96.4c53.2,0,96.4-43.3,96.4-96.4
			C517.4,244.5,474.1,201.2,420.9,201.2z"/>
	</g>
	<g>
		<circle class="st2" cx="420.9" cy="275" r="34.7"/>
	</g>
	<g>
		<g>
			<path class="st3" d="M479.3,323.5v-3.6h-22.8v-3.4h-9v3.4h-16.8V310c15.5-4.3,27-18.6,27-35.4c0-20.3-16.5-36.8-36.8-36.8
				c-20.3,0-36.8,16.5-36.8,36.8c0,16.9,11.4,31.1,27,35.4v9.8h-16.2v-3.4h-10.1v3.4h-22.2v3.6h22.2v10.6h-22.2v3.6h22.2v3.5h10.1
				v-3.5h52.5v3.5h9v-3.5h22.8v-3.6h-22.8v-10.6H479.3z M387.8,274.5c0-18.3,14.9-33.1,33.1-33.1c18.3,0,33.1,14.9,33.1,33.1
				c0,18.3-14.9,33.1-33.1,33.1C402.7,307.7,387.8,292.8,387.8,274.5z M388.5,334.1v-10.6V320h2.8v3.4v10.6v3.5h-2.8V334.1z
				 M394.9,334.1v-10.6h16.2h3.6v-3.6v-9c2,0.3,4.1,0.5,6.1,0.5c2.1,0,4.1-0.2,6.1-0.5v9v3.6h3.6h16.8v10.6H394.9z M452.9,337.6
				h-1.8V320h1.8V337.6z"/>
		</g>
		<g>
			<path class="st3" d="M424.2,274.5c0-0.2,0-0.4-0.1-0.6l8.1-8.1c0.7-0.7,0.7-1.9,0-2.6c-0.7-0.7-1.9-0.7-2.6,0l-8.1,8.1
				c-0.2,0-0.4-0.1-0.6-0.1c-1.8,0-3.2,1.4-3.2,3.2c0,1.8,1.4,3.2,3.2,3.2C422.7,277.8,424.2,276.3,424.2,274.5z"/>
		</g>
		<g>
			<path class="st3" d="M420.9,255.2c1,0,1.8-0.8,1.8-1.8v-5.2c0-1-0.8-1.8-1.8-1.8s-1.8,0.8-1.8,1.8v5.2
				C419.1,254.4,419.9,255.2,420.9,255.2z"/>
		</g>
		<g>
			<path class="st3" d="M442.2,274.5c0,1,0.8,1.8,1.8,1.8h5.2c1,0,1.8-0.8,1.8-1.8s-0.8-1.8-1.8-1.8H444
				C443,272.7,442.2,273.5,442.2,274.5z"/>
		</g>
		<g>
			<path class="st3" d="M399.7,274.5c0-1-0.8-1.8-1.8-1.8h-5.2c-1,0-1.8,0.8-1.8,1.8s0.8,1.8,1.8,1.8h5.2
				C398.9,276.4,399.7,275.5,399.7,274.5z"/>
		</g>
		<g>
			<path class="st3" d="M402.1,253.4c-0.7-0.7-1.9-0.7-2.6,0c-0.7,0.7-0.7,1.9,0,2.6l3.7,3.7c0.4,0.4,0.8,0.5,1.3,0.5
				s0.9-0.2,1.3-0.5c0.7-0.7,0.7-1.9,0-2.6L402.1,253.4z"/>
		</g>
		<g>
			<path class="st3" d="M437.4,260.2c0.5,0,0.9-0.2,1.3-0.5l3.7-3.7c0.7-0.7,0.7-1.9,0-2.6c-0.7-0.7-1.9-0.7-2.6,0l-3.7,3.7
				c-0.7,0.7-0.7,1.9,0,2.6C436.4,260,436.9,260.2,437.4,260.2z"/>
		</g>
		<g>
			<path class="st3" d="M403.2,288.8l-3.7,3.7c-0.7,0.7-0.7,1.9,0,2.6c0.4,0.4,0.8,0.5,1.3,0.5s0.9-0.2,1.3-0.5l3.7-3.7
				c0.7-0.7,0.7-1.9,0-2.6S403.9,288.1,403.2,288.8z"/>
		</g>
		<g>
			<path class="st3" d="M439.8,295.1c0.4,0.4,0.8,0.5,1.3,0.5s0.9-0.2,1.3-0.5c0.7-0.7,0.7-1.9,0-2.6l-3.7-3.7
				c-0.7-0.7-1.9-0.7-2.6,0c-0.7,0.7-0.7,1.9,0,2.6L439.8,295.1z"/>
		</g>
	</g>
</g>
</svg>
