<?xml version="1.0" encoding="utf-8"?>
<!-- Generator: Adobe Illustrator 21.0.0, SVG Export Plug-In . SVG Version: 6.00 Build 0)  -->
<svg version="1.1" id="new_x5F_connections" xmlns="http://www.w3.org/2000/svg" xmlns:xlink="http://www.w3.org/1999/xlink"
	 x="0px" y="0px" viewBox="0 0 841.9 595.3" style="enable-background:new 0 0 841.9 595.3;" xml:space="preserve">
<style type="text/css">
	.st0{fill:#ECF6EA;}
	.st1{fill:#398BCA;}
	.st2{fill:#FFFFFF;}
	.st3{fill:#3B89C9;}
</style>
<g>
	<g>
		<circle class="st0" cx="420.9" cy="297.6" r="86.1"/>
	</g>
	<g>
		<path class="st1" d="M420.9,397.6c-55.1,0-100-44.9-100-100s44.9-100,100-100s100,44.9,100,100S476.1,397.6,420.9,397.6z
			 M420.9,201.2c-53.2,0-96.4,43.3-96.4,96.4c0,53.2,43.3,96.4,96.4,96.4c53.2,0,96.4-43.3,96.4-96.4
			C517.4,244.5,474.1,201.2,420.9,201.2z"/>
	</g>
	<g>
		<polygon class="st2" points="405.6,329.9 419.2,329.9 419.2,346.3 426.9,346.3 412.8,369 397.6,346.3 405.4,346.1 		"/>
	</g>
	<g>
		<polygon class="st2" points="454.8,295.1 454.8,281.4 471.2,281.4 471.2,273.8 493.9,287.9 471.2,303 471,295.2 		"/>
	</g>
	<g>
		<g>
			<path class="st3" d="M440.9,280.4h-2.8c-3.6-10.8-13.9-18.3-25.4-18.3c-11.5,0-21.8,7.5-25.4,18.3h-2.9v-3.9h-9v3.9h-30.1v3.6
				h30.1v9.7h-30.1v3.6h30.1v3.9h9v-3.9h2.9c2.7,8,9,14.3,16.9,16.9v2.7h-3.9v9.3h24.8v-9.3h-3.9v-2.7c8-2.7,14.3-9,16.9-16.9h2.8
				v3.9h9v-24.8h-9V280.4z M380.8,297.6H379v-0.3v-3.6V284v-3.6v-0.3h1.8V297.6z M421.4,322.5h-17.5v-2h17.5V322.5z M436.7,293.7
				c0,0-0.1,0-0.1,0c-0.1,0-0.1,0-0.2,0c-0.1,0-0.1,0-0.2,0c-0.1,0-0.1,0-0.2,0.1c-0.1,0-0.1,0-0.2,0.1c0,0-0.1,0.1-0.1,0.1
				c-0.1,0-0.1,0.1-0.1,0.1c0,0-0.1,0.1-0.1,0.1c0,0-0.1,0.1-0.1,0.1c0,0-0.1,0.1-0.1,0.1c0,0-0.1,0.1-0.1,0.2c0,0-0.1,0.1-0.1,0.1
				c0,0.1-0.1,0.1-0.1,0.2c0,0,0,0.1,0,0.1c-2.2,7.8-8.3,14-16.1,16.1c0,0-0.1,0-0.1,0c-0.1,0-0.1,0-0.2,0.1c-0.1,0-0.1,0.1-0.2,0.1
				c0,0-0.1,0.1-0.1,0.1c-0.1,0-0.1,0.1-0.2,0.1c0,0-0.1,0.1-0.1,0.1c-0.1,0.1-0.1,0.1-0.1,0.2c0,0-0.1,0.1-0.1,0.1
				c0,0.1-0.1,0.1-0.1,0.2c0,0,0,0.1-0.1,0.1c0,0.1-0.1,0.1-0.1,0.2c0,0,0,0.1,0,0.1c0,0.1,0,0.2,0,0.3c0,0,0,0,0,0.1v4h-9.7V313
				c0,0,0-0.1,0-0.1v-0.1c0,0,0,0,0,0c0-0.1,0-0.2,0-0.3c0,0,0,0,0-0.1c0-0.1,0-0.2-0.1-0.3c0,0,0,0,0-0.1c0-0.1-0.1-0.2-0.1-0.2
				c0,0,0,0,0-0.1c-0.1-0.1-0.1-0.1-0.2-0.2c0,0,0,0-0.1-0.1c-0.1-0.1-0.1-0.1-0.2-0.2c0,0-0.1,0-0.1-0.1c-0.1,0-0.1-0.1-0.2-0.1
				c-0.1,0-0.1,0-0.2-0.1c0,0-0.1,0-0.1,0c-7.8-2.2-14-8.3-16.1-16.1c0,0,0-0.1,0-0.1c0-0.1,0-0.1-0.1-0.2c0,0,0-0.1-0.1-0.1
				c0-0.1-0.1-0.1-0.1-0.2c0,0-0.1-0.1-0.1-0.1c0-0.1-0.1-0.1-0.1-0.1c0,0-0.1-0.1-0.1-0.1c-0.1,0-0.1-0.1-0.2-0.1
				c0,0-0.1,0-0.1-0.1c-0.1,0-0.1-0.1-0.2-0.1c0,0-0.1,0-0.1,0c-0.1,0-0.1,0-0.2,0c0,0-0.1,0-0.1,0c0,0-0.1,0-0.1,0h-4.2V284h4.2
				c0,0,0.1,0,0.1,0c0.1,0,0.1,0,0.2,0c0.1,0,0.1,0,0.2,0c0.1,0,0.1,0,0.2-0.1c0.1,0,0.1,0,0.2-0.1c0.1,0,0.1-0.1,0.2-0.1
				c0,0,0.1-0.1,0.1-0.1c0,0,0.1-0.1,0.1-0.1c0,0,0.1-0.1,0.1-0.1c0,0,0.1-0.1,0.1-0.1c0,0,0.1-0.1,0.1-0.1c0,0,0.1-0.1,0.1-0.2
				c0-0.1,0-0.1,0.1-0.2c0,0,0-0.1,0-0.1c2.8-10,11.9-17,22.3-17c10.4,0,19.6,7,22.3,17c0,0,0,0.1,0.1,0.1c0,0,0,0.1,0,0.1
				c0,0.1,0.1,0.2,0.1,0.3c0,0,0,0,0,0c0.1,0.1,0.1,0.2,0.2,0.3c0,0,0,0,0,0c0.1,0.1,0.1,0.1,0.2,0.2c0,0,0,0,0.1,0
				c0.1,0,0.1,0.1,0.2,0.1c0,0,0.1,0,0.1,0c0.1,0,0.2,0.1,0.3,0.1c0,0,0,0,0.1,0c0.1,0,0.2,0,0.3,0c0,0,0,0,0,0h4.2v9.7H436.7z
				 M444.5,280.1h1.8v17.5h-1.8V280.1z"/>
		</g>
		<g>
			<path class="st3" d="M496.6,288.4l-27.9-17.6v9.5h-16.6v16.9h16.6v8.7L496.6,288.4z M455.7,293.7V284h13h3.6h0.1v-6.6l17.5,11
				l-17.5,11v-5.7h-0.1h-3.6H455.7z"/>
		</g>
		<g>
			<path class="st3" d="M420.8,328h-16.9v16.6h-8.7l17.6,27.9l17.6-27.9h-9.5V328z M412.8,365.7l-11-17.5h5.7v0v-3.6v-13h9.7v13v3.6
				v0h6.6L412.8,365.7z"/>
		</g>
	</g>
</g>
</svg>
