<?xml version="1.0" encoding="utf-8"?>
<!-- Generator: Adobe Illustrator 21.0.0, SVG Export Plug-In . SVG Version: 6.00 Build 0)  -->
<svg version="1.1" id="water_x5F_pressure" xmlns="http://www.w3.org/2000/svg" xmlns:xlink="http://www.w3.org/1999/xlink" x="0px"
	 y="0px" viewBox="0 0 841.9 595.3" style="enable-background:new 0 0 841.9 595.3;" xml:space="preserve">
<style type="text/css">
	.st0{fill:#ECF6EA;}
	.st1{fill:#398BCA;}
	.st2{fill:#FFFFFF;}
	.st3{fill:#3B89C9;}
</style>
<g>
	<g>
		<circle class="st0" cx="420.9" cy="297.6" r="86.1"/>
	</g>
	<g>
		<path class="st1" d="M420.9,397.6c-55.1,0-100-44.9-100-100s44.9-100,100-100s100,44.9,100,100S476.1,397.6,420.9,397.6z
			 M420.9,201.2c-53.2,0-96.4,43.3-96.4,96.4c0,53.2,43.3,96.4,96.4,96.4c53.2,0,96.4-43.3,96.4-96.4
			C517.4,244.5,474.1,201.2,420.9,201.2z"/>
	</g>
	<g>
		<circle class="st2" cx="420.5" cy="298.2" r="41.3"/>
	</g>
	<g>
		<g>
			<path class="st3" d="M431.6,284.5l-9.5,9.5c-0.4-0.1-0.7-0.2-1.1-0.2c-2.1,0-3.9,1.7-3.9,3.9c0,2.1,1.7,3.9,3.9,3.9
				c2.1,0,3.9-1.7,3.9-3.9c0-0.4-0.1-0.8-0.2-1.1l9.5-9.5c0.7-0.7,0.7-1.9,0-2.6C433.4,283.8,432.3,283.8,431.6,284.5z"/>
		</g>
		<g>
			<path class="st3" d="M420.9,274.2c1,0,1.8-0.8,1.8-1.8v-6.2c0-1-0.8-1.8-1.8-1.8s-1.8,0.8-1.8,1.8v6.2
				C419.1,273.4,419.9,274.2,420.9,274.2z"/>
		</g>
		<g>
			<path class="st3" d="M446.7,297.6c0,1,0.8,1.8,1.8,1.8h6.2c1,0,1.8-0.8,1.8-1.8s-0.8-1.8-1.8-1.8h-6.2
				C447.5,295.8,446.7,296.6,446.7,297.6z"/>
		</g>
		<g>
			<path class="st3" d="M393.4,295.8h-6.2c-1,0-1.8,0.8-1.8,1.8s0.8,1.8,1.8,1.8h6.2c1,0,1.8-0.8,1.8-1.8S394.4,295.8,393.4,295.8z"
				/>
		</g>
		<g>
			<path class="st3" d="M398.2,272.6c-0.7-0.7-1.9-0.7-2.6,0c-0.7,0.7-0.7,1.9,0,2.6l4.4,4.4c0.4,0.4,0.8,0.5,1.3,0.5
				s0.9-0.2,1.3-0.5c0.7-0.7,0.7-1.9,0-2.6L398.2,272.6z"/>
		</g>
		<g>
			<path class="st3" d="M446.3,272.6c-0.7-0.7-1.9-0.7-2.6,0l-4.4,4.4c-0.7,0.7-0.7,1.9,0,2.6c0.4,0.4,0.8,0.5,1.3,0.5
				s0.9-0.2,1.3-0.5l4.4-4.4C447,274.5,447,273.3,446.3,272.6z"/>
		</g>
		<g>
			<path class="st3" d="M506.5,292.3v-3.6H486v-3.5h-9v3.5h-13.4c-4.1-19.8-21.7-34.6-42.7-34.6c-21,0-38.5,14.9-42.7,34.6h-13.4
				v-3.5h-9v3.5h-20.4v3.6h20.4v10.6h-20.4v3.6h20.4v3.5h9v-3.5h13.4c4.1,19.8,21.7,34.6,42.7,34.6c21,0,38.5-14.9,42.7-34.6H477
				v3.5h9v-3.5h20.4v-3.6H486v-10.6H506.5z M361.3,306.4h-1.8v-17.5h1.8V306.4z M364.9,302.9v-10.6h12.8c-0.2,1.7-0.3,3.5-0.3,5.3
				c0,1.8,0.1,3.6,0.3,5.3H364.9z M420.9,337.6c-22,0-39.9-17.9-39.9-39.9c0-22,17.9-39.9,39.9-39.9c22,0,39.9,17.9,39.9,39.9
				C460.9,319.7,443,337.6,420.9,337.6z M464.2,302.9c0.2-1.7,0.3-3.5,0.3-5.3c0-1.8-0.1-3.6-0.3-5.3H477v10.6H464.2z M482.4,306.4
				h-1.8v-17.5h1.8V306.4z"/>
		</g>
		<g>
			<path class="st3" d="M408.5,320.6h24.8v-9h-24.8V320.6z M412.2,315.2h17.5v1.8h-17.5V315.2z"/>
		</g>
	</g>
</g>
</svg>
