<?xml version="1.0" encoding="utf-8"?>
<!-- Generator: Adobe Illustrator 21.0.0, SVG Export Plug-In . SVG Version: 6.00 Build 0)  -->
<svg version="1.1" id="water_x5F_schedule" xmlns="http://www.w3.org/2000/svg" xmlns:xlink="http://www.w3.org/1999/xlink" x="0px"
	 y="0px" viewBox="0 0 841.9 595.3" style="enable-background:new 0 0 841.9 595.3;" xml:space="preserve">
<style type="text/css">
	.st0{fill:#ECF6EA;}
	.st1{fill:#398BCA;}
	.st2{fill:#FFFFFF;}
	.st3{fill:#3B89C9;}
</style>
<g>
	<g>
		<circle class="st0" cx="420.9" cy="297.6" r="86.1"/>
	</g>
	<g>
		<path class="st1" d="M420.9,397.6c-55.1,0-100-44.9-100-100s44.9-100,100-100s100,44.9,100,100S476.1,397.6,420.9,397.6z
			 M420.9,201.2c-53.2,0-96.4,43.3-96.4,96.4c0,53.2,43.3,96.4,96.4,96.4c53.2,0,96.4-43.3,96.4-96.4
			C517.4,244.5,474.1,201.2,420.9,201.2z"/>
	</g>
	<g>
		<circle class="st2" cx="442.4" cy="316.7" r="29.8"/>
	</g>
	<g>
		<g>
			<g>
				<path class="st3" d="M406,350.7c-21.3,0-38.6-17.3-38.6-38.6c0-20.4,13.1-34.2,23.7-45.3c7-7.3,13-13.7,13-19.7v0
					c0-1,0.8-1.8,1.8-1.8l0,0c1,0,1.8,0.8,1.8,1.8v0c0,6,6,12.4,13,19.7c3.8,4,8.2,8.5,12,13.5c0.6,0.8,0.5,1.9-0.3,2.5
					c-0.8,0.6-1.9,0.5-2.5-0.3c-3.7-4.8-7.8-9.1-11.7-13.2c-5.1-5.4-9.8-10.3-12.2-15.2c-2.5,4.9-7.1,9.8-12.2,15.2
					C383.6,280,371,293.2,371,312.2c0,19.3,15.7,34.9,34.9,34.9c4.7,0,9.2-0.9,13.5-2.7c0.9-0.4,2,0,2.4,1c0.4,0.9,0,2-1,2.4
					C416.1,349.7,411.1,350.7,406,350.7z"/>
			</g>
		</g>
		<g>
			<g>
				<path class="st3" d="M442.1,349.1c-17.9,0-32.4-14.5-32.4-32.4c0-17.9,14.5-32.4,32.4-32.4c17.9,0,32.4,14.5,32.4,32.4
					C474.5,334.6,459.9,349.1,442.1,349.1z M442.1,287.9c-15.9,0-28.8,12.9-28.8,28.8c0,15.9,12.9,28.8,28.8,28.8
					c15.9,0,28.8-12.9,28.8-28.8C470.8,300.8,457.9,287.9,442.1,287.9z"/>
			</g>
		</g>
		<g>
			<g>
				<g>
					<path class="st3" d="M442.4,297.2c-1,0-1.8-0.8-1.8-1.8v-2.5c0-1,0.8-1.8,1.8-1.8s1.8,0.8,1.8,1.8v2.5
						C444.2,296.4,443.4,297.2,442.4,297.2z"/>
				</g>
			</g>
			<g>
				<g>
					<path class="st3" d="M442.4,342.1c-1,0-1.8-0.8-1.8-1.8v-2.5c0-1,0.8-1.8,1.8-1.8s1.8,0.8,1.8,1.8v2.5
						C444.2,341.3,443.4,342.1,442.4,342.1z"/>
				</g>
			</g>
			<g>
				<g>
					<g>
						<path class="st3" d="M424.7,309.3c-0.3,0-0.6-0.1-0.8-0.2l-2.2-1.2c-0.9-0.5-1.2-1.6-0.8-2.4c0.5-0.9,1.6-1.2,2.4-0.8l2.2,1.2
							c0.9,0.5,1.2,1.6,0.8,2.4C426,308.9,425.4,309.3,424.7,309.3z"/>
					</g>
				</g>
				<g>
					<g>
						<path class="st3" d="M431.9,300.8c-0.6,0-1.2-0.3-1.5-0.8l-1.4-2.1c-0.6-0.8-0.3-2,0.5-2.5c0.8-0.6,2-0.3,2.5,0.5l1.4,2.1
							c0.6,0.8,0.3,2-0.5,2.5C432.6,300.7,432.3,300.8,431.9,300.8z"/>
					</g>
				</g>
				<g>
					<g>
						<path class="st3" d="M422.5,328.7c-0.7,0-1.3-0.4-1.6-1c-0.5-0.9-0.1-2,0.8-2.4l2.2-1.2c0.9-0.5,2-0.1,2.4,0.8
							c0.5,0.9,0.1,2-0.8,2.4l-2.2,1.2C423.1,328.7,422.8,328.7,422.5,328.7z"/>
					</g>
				</g>
				<g>
					<g>
						<path class="st3" d="M430.5,338.1c-0.4,0-0.7-0.1-1-0.3c-0.8-0.6-1-1.7-0.5-2.5l1.4-2.1c0.6-0.8,1.7-1,2.5-0.5
							c0.8,0.6,1,1.7,0.5,2.5l-1.4,2.1C431.7,337.9,431.1,338.1,430.5,338.1z"/>
					</g>
				</g>
				<g>
					<g>
						<path class="st3" d="M421.5,318.5H419c-1,0-1.8-0.8-1.8-1.8s0.8-1.8,1.8-1.8h2.5c1,0,1.8,0.8,1.8,1.8S422.5,318.5,421.5,318.5
							z"/>
					</g>
				</g>
			</g>
			<g>
				<g>
					<g>
						<path class="st3" d="M459.4,309.3c-0.7,0-1.3-0.4-1.6-1c-0.5-0.9-0.1-2,0.8-2.4l2.2-1.2c0.9-0.5,2-0.1,2.4,0.8
							c0.5,0.9,0.1,2-0.8,2.4l-2.2,1.2C460,309.2,459.7,309.3,459.4,309.3z"/>
					</g>
				</g>
				<g>
					<g>
						<path class="st3" d="M452.2,300.8c-0.4,0-0.7-0.1-1-0.3c-0.8-0.6-1-1.7-0.5-2.5l1.4-2.1c0.6-0.8,1.7-1,2.5-0.5
							c0.8,0.6,1,1.7,0.5,2.5l-1.4,2.1C453.4,300.5,452.8,300.8,452.2,300.8z"/>
					</g>
				</g>
				<g>
					<g>
						<path class="st3" d="M461.7,328.7c-0.3,0-0.6-0.1-0.8-0.2l-2.2-1.2c-0.9-0.5-1.2-1.6-0.8-2.4c0.5-0.9,1.6-1.2,2.4-0.8l2.2,1.2
							c0.9,0.5,1.2,1.6,0.8,2.4C463,328.4,462.3,328.7,461.7,328.7z"/>
					</g>
				</g>
				<g>
					<g>
						<path class="st3" d="M453.6,338.1c-0.6,0-1.2-0.3-1.5-0.8l-1.4-2.1c-0.6-0.8-0.3-2,0.5-2.5c0.8-0.6,2-0.3,2.5,0.5l1.4,2.1
							c0.6,0.8,0.3,2-0.5,2.5C454.3,338,454,338.1,453.6,338.1z"/>
					</g>
				</g>
				<g>
					<g>
						<path class="st3" d="M465.2,318.5h-2.5c-1,0-1.8-0.8-1.8-1.8s0.8-1.8,1.8-1.8h2.5c1,0,1.8,0.8,1.8,1.8
							S466.2,318.5,465.2,318.5z"/>
					</g>
				</g>
			</g>
		</g>
		<g>
			<g>
				<path class="st3" d="M449,318.5h-8.5V303c0-1,0.8-1.8,1.8-1.8s1.8,0.8,1.8,1.8v11.9h4.8c1,0,1.8,0.8,1.8,1.8
					S450.1,318.5,449,318.5z"/>
			</g>
		</g>
	</g>
</g>
</svg>
