<?xml version="1.0" encoding="utf-8"?>
<!-- Generator: Adobe Illustrator 21.0.0, SVG Export Plug-In . SVG Version: 6.00 Build 0)  -->
<svg version="1.1" id="water_x5F_quality" xmlns="http://www.w3.org/2000/svg" xmlns:xlink="http://www.w3.org/1999/xlink" x="0px"
	 y="0px" viewBox="0 0 841.9 595.3" style="enable-background:new 0 0 841.9 595.3;" xml:space="preserve">
<style type="text/css">
	.st0{fill:#ECF6EA;}
	.st1{fill:#398BCA;}
	.st2{fill:#FFFFFF;}
	.st3{fill:#3B89C9;}
</style>
<g>
	<circle class="st0" cx="420.9" cy="297.6" r="86.1"/>
</g>
<g>
	<path class="st1" d="M420.9,397.6c-55.1,0-100-44.9-100-100s44.9-100,100-100s100,44.9,100,100S476.1,397.6,420.9,397.6z
		 M420.9,201.2c-53.2,0-96.4,43.3-96.4,96.4c0,53.2,43.3,96.4,96.4,96.4c53.2,0,96.4-43.3,96.4-96.4
		C517.4,244.5,474.1,201.2,420.9,201.2z"/>
</g>
<g>
	<g>
		<path class="st2" d="M388.5,347.5h64.9c1.3,0,2.4-1.2,2.4-2.7v-46.9c-0.9,0.8-1.7,2.2-2.7,4.1c-1.6,3-3.6,6.8-7.7,6.8
			c-4.2,0-6.1-3.8-7.7-6.8c-1.6-3-2.7-4.8-4.5-4.8c-1.8,0-2.9,1.8-4.5,4.8c-1.6,3-3.6,6.8-7.7,6.8c-4.2,0-6.1-3.8-7.7-6.8
			c-1.6-3-2.7-4.8-4.5-4.8c-1.8,0-2.9,1.8-4.5,4.8c-1.6,3-3.6,6.8-7.7,6.8c-4.2,0-6.1-3.8-7.7-6.8c-1-1.9-1.8-3.3-2.7-4.1v46.9
			C386.1,346.3,387.2,347.5,388.5,347.5z"/>
	</g>
	<g>
		<path class="st2" d="M420.9,274.9c5.1,0,9.3-4.2,9.3-9.3c0-5.2-3.5-8.9-6.5-12.1c-1-1.1-2-2.1-2.8-3.1c-0.8,1-1.8,2-2.8,3.1
			c-3.1,3.2-6.5,6.8-6.5,12.1C411.6,270.7,415.8,274.9,420.9,274.9z"/>
	</g>
	<g>
		<path class="st3" d="M420.9,278.5c7.1,0,12.9-5.8,12.9-12.9c0-6.7-4.2-11.1-7.5-14.6c-1.8-1.9-3.6-3.8-3.6-5.1
			c0-1-0.8-1.8-1.8-1.8c-1,0-1.8,0.8-1.8,1.8c0,1.3-1.7,3.1-3.6,5.1c-3.4,3.5-7.5,7.9-7.5,14.6C408,272.7,413.8,278.5,420.9,278.5z
			 M418.2,253.5c1-1.1,2-2.1,2.8-3.1c0.8,1,1.8,2,2.8,3.1c3.1,3.2,6.5,6.8,6.5,12.1c0,5.1-4.2,9.3-9.3,9.3c-5.1,0-9.3-4.2-9.3-9.3
			C411.6,260.4,415.1,256.7,418.2,253.5z"/>
	</g>
	<g>
		<path class="st3" d="M455.8,273.9v19.9c-3,0.9-4.6,4-5.9,6.5c-1.6,3-2.7,4.8-4.5,4.8c-1.8,0-2.9-1.8-4.5-4.8
			c-1.6-3-3.6-6.8-7.7-6.8c-4.2,0-6.1,3.8-7.7,6.8c-1.6,3-2.7,4.8-4.5,4.8c-1.8,0-2.9-1.8-4.5-4.8c-1.6-3-3.6-6.8-7.7-6.8
			c-4.2,0-6.1,3.8-7.7,6.8c-1.6,3-2.7,4.8-4.5,4.8c-1.8,0-2.9-1.8-4.5-4.8c-1.3-2.5-3-5.6-5.9-6.5v-19.9h-3.6v70.9
			c0,3.5,2.7,6.4,6.1,6.4h64.9c3.3,0,6.1-2.9,6.1-6.4v-70.9H455.8z M455.8,344.8c0,1.5-1.1,2.7-2.4,2.7h-64.9
			c-1.3,0-2.4-1.2-2.4-2.7v-46.9c0.9,0.8,1.7,2.2,2.7,4.1c1.6,3,3.6,6.8,7.7,6.8c4.2,0,6.1-3.8,7.7-6.8c1.6-3,2.7-4.8,4.5-4.8
			c1.8,0,2.9,1.8,4.5,4.8c1.6,3,3.6,6.8,7.7,6.8c4.2,0,6.1-3.8,7.7-6.8c1.6-3,2.7-4.8,4.5-4.8c1.8,0,2.9,1.8,4.5,4.8
			c1.6,3,3.6,6.8,7.7,6.8c4.2,0,6.1-3.8,7.7-6.8c1-1.9,1.8-3.3,2.7-4.1V344.8z"/>
	</g>
</g>
</svg>
