<?xml version="1.0" encoding="utf-8"?>
<!-- Generator: Adobe Illustrator 21.0.0, SVG Export Plug-In . SVG Version: 6.00 Build 0)  -->
<svg version="1.1" id="water_x5F_service" xmlns="http://www.w3.org/2000/svg" xmlns:xlink="http://www.w3.org/1999/xlink" x="0px"
	 y="0px" viewBox="0 0 841.9 595.3" style="enable-background:new 0 0 841.9 595.3;" xml:space="preserve">
<style type="text/css">
	.st0{fill:#ECF6EA;}
	.st1{fill:#398BCA;}
	.st2{fill:#3B89C9;}
	.st3{fill:#FFFFFF;}
</style>
<g>
	<circle class="st0" cx="420.9" cy="297.6" r="86.1"/>
</g>
<g>
	<path class="st1" d="M420.9,397.6c-55.1,0-100-44.9-100-100s44.9-100,100-100s100,44.9,100,100S476.1,397.6,420.9,397.6z
		 M420.9,201.2c-53.2,0-96.4,43.3-96.4,96.4c0,53.2,43.3,96.4,96.4,96.4c53.2,0,96.4-43.3,96.4-96.4
		C517.4,244.5,474.1,201.2,420.9,201.2z"/>
</g>
<g>
	<g>
		<path class="st2" d="M428,338c-6,4.2-13,6.4-20.4,6.4c-19.6,0-35.5-15.9-35.5-35.5c0-19.3,12.8-32.7,23-43.4
			c5.2-5.5,10-10.4,12.4-15.4c2.5,5,7.2,10,12.4,15.4c3.9,4.1,7.9,8.3,11.6,13.1c0.6,0.8,1.8,0.9,2.5,0.3c0.8-0.6,0.9-1.7,0.3-2.5
			c-3.8-4.9-8.1-9.4-11.9-13.4c-7.1-7.4-13.2-13.9-13.2-20c0-1-0.8-1.8-1.8-1.8c-1,0-1.8,0.8-1.8,1.8c0,6.1-6.1,12.5-13.2,20
			c-10.7,11.2-24,25.2-24,45.9c0,21.6,17.5,39.1,39.1,39.1c8.1,0,15.9-2.5,22.5-7.1c0.8-0.6,1-1.7,0.4-2.5
			C430,337.6,428.9,337.4,428,338z"/>
	</g>
	<g>
		<g>
			<path class="st3" d="M467.6,320.1C467.6,320,467.6,320,467.6,320.1c-3.5-6.1-1.9-13.6,3.5-17.8l-4.4-7.7c-1.7,0.7-3.4,1-5.2,1
				c-6.9,0-12.7-5.2-13.6-11.9H439c-0.2,1.8-0.8,3.5-1.7,5.1c-3.5,6-10.8,8.4-17.1,5.8l-4.4,7.7c1.4,1.1,2.6,2.5,3.5,4
				c3.5,6,1.8,13.5-3.5,17.7l4.4,7.7c1.6-0.7,3.4-1,5.2-1c6.9,0,12.6,5.2,13.6,11.9h8.9c0.2-1.8,0.8-3.5,1.7-5
				c3.5-6,10.8-8.4,17.1-5.8l4.4-7.7C469.7,322.9,468.5,321.6,467.6,320.1z M443.4,327.5c-8,0-14.4-6.5-14.4-14.4
				s6.5-14.4,14.4-14.4c8,0,14.4,6.5,14.4,14.4S451.4,327.5,443.4,327.5z"/>
		</g>
		<g>
			<path class="st2" d="M474.4,321.8c-1.5-0.9-2.8-2.1-3.7-3.7c0,0,0,0,0-0.1c-2.7-4.8-1-10.9,3.8-13.7c0.9-0.5,1.2-1.6,0.7-2.5
				l-6.1-10.6c-0.2-0.4-0.6-0.7-1.1-0.8c-0.5-0.1-1-0.1-1.4,0.2c-1.5,0.9-3.3,1.4-5,1.4c-5.5,0-10-4.5-10-10.1c0-1-0.8-1.8-1.8-1.8
				h-12.3c-0.5,0-0.9,0.2-1.3,0.5c-0.3,0.3-0.5,0.8-0.5,1.3c0,1.8-0.4,3.5-1.3,5.1c-2.8,4.8-8.9,6.4-13.8,3.6
				c-0.9-0.5-2-0.2-2.5,0.7l-6.1,10.6c-0.2,0.4-0.3,0.9-0.2,1.4c0.1,0.5,0.4,0.9,0.9,1.1c1.5,0.9,2.8,2.1,3.7,3.7
				c2.8,4.8,1.1,10.9-3.7,13.7c-0.9,0.5-1.2,1.6-0.7,2.5l6.1,10.6c0.2,0.4,0.6,0.7,1.1,0.8c0.5,0.1,1,0.1,1.4-0.2
				c1.5-0.9,3.3-1.4,5-1.4c5.5,0,10,4.5,10,10.1c0,1,0.8,1.8,1.8,1.8h12.3c0.5,0,0.9-0.2,1.3-0.5c0.3-0.3,0.5-0.8,0.5-1.3
				c0-1.8,0.5-3.5,1.3-5c2.8-4.8,8.9-6.4,13.8-3.7c0.9,0.5,2,0.2,2.5-0.7l6.1-10.6c0.2-0.4,0.3-0.9,0.2-1.4
				C475.1,322.5,474.8,322.1,474.4,321.8z M466.6,331.7c-6.3-2.6-13.6-0.2-17.1,5.8c-0.9,1.6-1.5,3.3-1.7,5H439
				c-0.9-6.7-6.7-11.9-13.6-11.9c-1.8,0-3.6,0.4-5.2,1l-4.4-7.7c5.4-4.1,7-11.7,3.5-17.7c-0.9-1.6-2.1-2.9-3.5-4l4.4-7.7
				c6.3,2.6,13.6,0.2,17.1-5.8c0.9-1.6,1.5-3.3,1.7-5.1h8.9c0.9,6.7,6.6,11.9,13.6,11.9c1.8,0,3.6-0.4,5.2-1l4.4,7.7
				c-5.4,4.1-7,11.7-3.5,17.7c0,0,0,0.1,0,0.1c0.9,1.5,2.1,2.8,3.5,3.9L466.6,331.7z"/>
		</g>
		<g>
			<path class="st2" d="M443.4,298.6c-8,0-14.4,6.5-14.4,14.4s6.5,14.4,14.4,14.4c8,0,14.4-6.5,14.4-14.4S451.4,298.6,443.4,298.6z
				 M443.4,323.9c-6,0-10.8-4.9-10.8-10.8c0-6,4.9-10.8,10.8-10.8c6,0,10.8,4.9,10.8,10.8C454.2,319.1,449.4,323.9,443.4,323.9z"/>
		</g>
	</g>
</g>
</svg>
