<?xml version="1.0" encoding="utf-8"?>
<!-- Generator: Adobe Illustrator 21.0.0, SVG Export Plug-In . SVG Version: 6.00 Build 0)  -->
<svg version="1.1" id="lack_x5F_of_x5F_water" xmlns="http://www.w3.org/2000/svg" xmlns:xlink="http://www.w3.org/1999/xlink"
	 x="0px" y="0px" viewBox="0 0 200 200" style="enable-background:new 0 0 200 200;" xml:space="preserve">
<style type="text/css">
	.st0{fill:#ECF6EA;}
	.st1{fill:#398BCA;}
	.st2{fill:none;}
	.st3{fill:#FFFFFF;}
	.st4{fill:#3B89C9;}
</style>
<g>
	<g>
		<circle class="st0" cx="100" cy="100" r="86.1"/>
	</g>
	<g>
		<path class="st1" d="M100,200C44.9,200,0,155.1,0,100S44.9,0,100,0s100,44.9,100,100S155.2,200,100,200z M100,3.6
			C46.8,3.6,3.6,46.9,3.6,100c0,53.2,43.3,96.4,96.4,96.4c53.2,0,96.4-43.3,96.4-96.4C196.5,46.9,153.2,3.6,100,3.6z"/>
	</g>
	<g>
		<g>
			<rect x="105.2" y="95.1" class="st2" width="2" height="17.5"/>
		</g>
		<g>
			<rect x="43.7" y="54" class="st2" width="17.5" height="2"/>
		</g>
		<g>
			<path class="st3" d="M110.1,80.8h-2.6v3.4c0-0.5,0.2-0.9,0.5-1.3L110.1,80.8z"/>
		</g>
		<g>
			<path class="st3" d="M142.5,130.3V148h10.2v-17.7c0-17.6-14.3-31.9-31.9-31.9h-10v10.3h10.1C132.8,108.7,142.5,118.4,142.5,130.3
				z"/>
		</g>
		<g>
			<rect x="92.9" y="95.1" class="st2" width="2" height="17.5"/>
		</g>
		<g>
			<path class="st3" d="M57.6,77.3V59.6H47.4v17.7c0,17.6,14.3,31.9,31.9,31.9h10V98.9H79.2C67.3,98.9,57.6,89.2,57.6,77.3z"/>
		</g>
		<g>
			<path class="st4" d="M98.6,91.4h-6.1h-3.2v3.9H79.2c-9.9,0-18-8.1-18-18V59.6h3.6v-9.2H40v9.3h3.7v17.7
				c0,19.6,15.9,35.5,35.5,35.5h10v3.3h3.2h6.1L98.6,91.4L98.6,91.4z M43.7,56v-2h17.5v2H43.7z M89.3,109.3h-10
				c-17.6,0-31.9-14.3-31.9-31.9V59.7h10.2v17.7c0,11.9,9.7,21.6,21.6,21.6h10.1L89.3,109.3L89.3,109.3z M94.9,112.6h-2V95.1h2
				V112.6z"/>
		</g>
		<g>
			<path class="st4" d="M156.4,148v-17.7c0-19.6-15.9-35.5-35.5-35.5h-10v-3.4h-3.3h-5.9v24.8h5.9h3.3v-3.8H121c9.9,0,18,8.1,18,18
				v17.7h-3.6v9.3h24.8v-9.3h-3.8V148z M107.2,112.6h-2V95.1h2V112.6z M120.9,108.7h-10.1V98.4h10c17.6,0,31.9,14.3,31.9,31.9V148
				h-10.2v-17.7C142.5,118.4,132.8,108.7,120.9,108.7z M156.4,153.6h-17.5v-2h17.5V153.6z"/>
		</g>
		<g>
			<path class="st4" d="M100,86c1,0,1.8-0.8,1.8-1.8v-9.5c0-1-0.8-1.8-1.8-1.8s-1.8,0.8-1.8,1.8v9.5C98.2,85.2,99,86,100,86z"/>
		</g>
		<g>
			<path class="st4" d="M89.4,85.5c0.4,0.4,0.8,0.5,1.3,0.5s0.9-0.2,1.3-0.5c0.7-0.7,0.7-1.9,0-2.6l-6.7-6.7c-0.7-0.7-1.9-0.7-2.6,0
				s-0.7,1.9,0,2.6L89.4,85.5z"/>
		</g>
		<g>
			<path class="st4" d="M117.3,78.7c0.7-0.7,0.7-1.9,0-2.6s-1.9-0.7-2.6,0l-4.7,4.7h5.1L117.3,78.7z"/>
		</g>
		<g>
			<path class="st4" d="M109.3,86c0.5,0,0.9-0.2,1.3-0.5l4.7-4.7h-5.2l-2.1,2.1c-0.4,0.4-0.5,0.8-0.5,1.3s0.2,0.9,0.5,1.3
				C108.4,85.8,108.8,86,109.3,86z"/>
		</g>
		<g>
			<path class="st4" d="M100,121.6c-1,0-1.8,0.8-1.8,1.8v9.5c0,1,0.8,1.8,1.8,1.8s1.8-0.8,1.8-1.8v-9.5
				C101.8,122.4,101,121.6,100,121.6z"/>
		</g>
		<g>
			<path class="st4" d="M89.4,122.2l-6.7,6.7c-0.7,0.7-0.7,1.9,0,2.6c0.4,0.4,0.8,0.5,1.3,0.5s0.9-0.2,1.3-0.5l6.7-6.7
				c0.7-0.7,0.7-1.9,0-2.6C91.2,121.5,90.1,121.5,89.4,122.2z"/>
		</g>
		<g>
			<path class="st4" d="M114.7,131.5c0.4,0.4,0.8,0.5,1.3,0.5s0.9-0.2,1.3-0.5c0.7-0.7,0.7-1.9,0-2.6l-6.7-6.7
				c-0.7-0.7-1.9-0.7-2.6,0c-0.4,0.4-0.5,0.8-0.5,1.3s0.2,0.9,0.5,1.3L114.7,131.5z"/>
		</g>
	</g>
</g>
</svg>
