<?xml version="1.0" encoding="utf-8"?>
<!-- Generator: Adobe Illustrator 21.0.0, SVG Export Plug-In . SVG Version: 6.00 Build 0)  -->
<svg version="1.1" id="meter_x5F_problem" xmlns="http://www.w3.org/2000/svg" xmlns:xlink="http://www.w3.org/1999/xlink" x="0px"
	 y="0px" viewBox="0 0 200 200" style="enable-background:new 0 0 200 200;" xml:space="preserve">
<style type="text/css">
	.st0{fill:#ECF6EA;}
	.st1{fill:#398BCA;}
	.st2{fill:#FFFFFF;}
	.st3{fill:#3B89C9;}
</style>
<g>
	<g>
		<circle class="st0" cx="99.9" cy="100" r="86.1"/>
	</g>
	<g>
		<path class="st1" d="M99.9,200c-55.1,0-100-44.9-100-100S44.8,0,99.9,0s100,44.9,100,100S155.1,200,99.9,200z M99.9,3.6
			C46.7,3.6,3.5,46.9,3.5,100c0,53.2,43.3,96.4,96.4,96.4c53.2,0,96.4-43.3,96.4-96.4C196.5,46.9,153.1,3.6,99.9,3.6z"/>
	</g>
	<g>
		<circle class="st2" cx="99.9" cy="77.4" r="34.7"/>
	</g>
	<g>
		<g>
			<path class="st3" d="M158.3,125.9v-3.6h-22.8v-3.4h-9v3.4h-16.8v-9.9c15.5-4.3,27-18.6,27-35.4c0-20.3-16.5-36.8-36.8-36.8
				S63.2,56.7,63.2,77c0,16.9,11.4,31.1,27,35.4v9.8H74v-3.4H63.9v3.4H41.6v3.6h22.2v10.6H41.6v3.6h22.2v3.5H74V140h52.5v3.5h9V140
				h22.8v-3.6h-22.8v-10.6h22.9V125.9z M66.8,76.9c0-18.3,14.9-33.1,33.1-33.1c18.3,0,33.1,14.9,33.1,33.1
				c0,18.3-14.9,33.1-33.1,33.1C81.8,110.1,66.8,95.1,66.8,76.9z M67.5,136.5v-10.6v-3.5h2.8v3.4v10.6v3.5h-2.8V136.5z M73.9,136.5
				v-10.6h16.2h3.6v-3.6v-9c2,0.3,4.1,0.5,6.1,0.5c2.1,0,4.1-0.2,6.1-0.5v9v3.6h3.6h16.8v10.6H73.9z M131.9,140h-1.8v-17.6h1.8V140z
				"/>
		</g>
		<g>
			<path class="st3" d="M103.2,76.9c0-0.2,0-0.4-0.1-0.6l8.1-8.1c0.7-0.7,0.7-1.9,0-2.6s-1.9-0.7-2.6,0l-8.1,8.1
				c-0.2,0-0.4-0.1-0.6-0.1c-1.8,0-3.2,1.4-3.2,3.2c0,1.8,1.4,3.2,3.2,3.2C101.8,80.1,103.2,78.6,103.2,76.9z"/>
		</g>
		<g>
			<path class="st3" d="M99.9,57.6c1,0,1.8-0.8,1.8-1.8v-5.2c0-1-0.8-1.8-1.8-1.8s-1.8,0.8-1.8,1.8v5.2
				C98.1,56.8,98.9,57.6,99.9,57.6z"/>
		</g>
		<g>
			<path class="st3" d="M121.2,76.9c0,1,0.8,1.8,1.8,1.8h5.2c1,0,1.8-0.8,1.8-1.8s-0.8-1.8-1.8-1.8H123
				C122,75.1,121.2,75.9,121.2,76.9z"/>
		</g>
		<g>
			<path class="st3" d="M78.8,76.9c0-1-0.8-1.8-1.8-1.8h-5.2c-1,0-1.8,0.8-1.8,1.8s0.8,1.8,1.8,1.8H77
				C77.9,78.8,78.8,77.9,78.8,76.9z"/>
		</g>
		<g>
			<path class="st3" d="M81.1,55.8c-0.7-0.7-1.9-0.7-2.6,0s-0.7,1.9,0,2.6l3.7,3.7c0.4,0.4,0.8,0.5,1.3,0.5s0.9-0.2,1.3-0.5
				c0.7-0.7,0.7-1.9,0-2.6L81.1,55.8z"/>
		</g>
		<g>
			<path class="st3" d="M116.4,62.6c0.5,0,0.9-0.2,1.3-0.5l3.7-3.7c0.7-0.7,0.7-1.9,0-2.6c-0.7-0.7-1.9-0.7-2.6,0l-3.7,3.7
				c-0.7,0.7-0.7,1.9,0,2.6C115.4,62.4,115.9,62.6,116.4,62.6z"/>
		</g>
		<g>
			<path class="st3" d="M82.2,91.1l-3.7,3.7c-0.7,0.7-0.7,1.9,0,2.6c0.4,0.4,0.8,0.5,1.3,0.5s0.9-0.2,1.3-0.5l3.7-3.7
				c0.7-0.7,0.7-1.9,0-2.6S82.9,90.5,82.2,91.1z"/>
		</g>
		<g>
			<path class="st3" d="M118.8,97.5c0.4,0.4,0.8,0.5,1.3,0.5s0.9-0.2,1.3-0.5c0.7-0.7,0.7-1.9,0-2.6l-3.7-3.7
				c-0.7-0.7-1.9-0.7-2.6,0s-0.7,1.9,0,2.6L118.8,97.5z"/>
		</g>
	</g>
</g>
</svg>
