<?xml version="1.0" encoding="utf-8"?>
<!-- Generator: Adobe Illustrator 21.0.0, SVG Export Plug-In . SVG Version: 6.00 Build 0)  -->
<svg version="1.1" id="new_x5F_connections" xmlns="http://www.w3.org/2000/svg" xmlns:xlink="http://www.w3.org/1999/xlink"
	 x="0px" y="0px" viewBox="0 0 200 200" style="enable-background:new 0 0 200 200;" xml:space="preserve">
<style type="text/css">
	.st0{fill:#ECF6EA;}
	.st1{fill:#398BCA;}
	.st2{fill:#FFFFFF;}
	.st3{fill:#3B89C9;}
</style>
<g>
	<g>
		<circle class="st0" cx="100" cy="100" r="86.1"/>
	</g>
	<g>
		<path class="st1" d="M100,200C44.9,200,0,155.1,0,100S44.9,0,100,0s100,44.9,100,100S155.2,200,100,200z M100,3.6
			C46.8,3.6,3.6,46.9,3.6,100c0,53.2,43.3,96.4,96.4,96.4c53.2,0,96.4-43.3,96.4-96.4C196.5,46.9,153.2,3.6,100,3.6z"/>
	</g>
	<g>
		<polygon class="st2" points="84.7,132.3 98.3,132.3 98.3,148.7 106,148.7 91.9,171.4 76.7,148.7 84.5,148.5 		"/>
	</g>
	<g>
		<polygon class="st2" points="133.9,97.5 133.9,83.8 150.3,83.8 150.3,76.2 173,90.3 150.3,105.4 150.1,97.6 		"/>
	</g>
	<g>
		<g>
			<path class="st3" d="M120,82.8h-2.8c-3.6-10.8-13.9-18.3-25.4-18.3S70,72,66.4,82.8h-2.9v-3.9h-9v3.9H24.4v3.6h30.1v9.7H24.4v3.6
				h30.1v3.9h9v-3.9h2.9c2.7,8,9,14.3,16.9,16.9v2.7h-3.9v9.3h24.8v-9.3h-3.9v-2.7c8-2.7,14.3-9,16.9-16.9h2.8v3.9h9V78.8h-9V82.8z
				 M59.9,100h-1.8v-0.3v-3.6v-9.7v-3.6v-0.3h1.8V100z M100.5,124.9H83v-2h17.5V124.9z M115.8,96.1h-0.1c-0.1,0-0.1,0-0.2,0
				s-0.1,0-0.2,0s-0.1,0-0.2,0.1c-0.1,0-0.1,0-0.2,0.1l-0.1,0.1c-0.1,0-0.1,0.1-0.1,0.1l-0.1,0.1l-0.1,0.1l-0.1,0.1
				c0,0-0.1,0.1-0.1,0.2l-0.1,0.1c0,0.1-0.1,0.1-0.1,0.2v0.1c-2.2,7.8-8.3,14-16.1,16.1h-0.1c-0.1,0-0.1,0-0.2,0.1
				c-0.1,0-0.1,0.1-0.2,0.1l-0.1,0.1c-0.1,0-0.1,0.1-0.2,0.1l-0.1,0.1c-0.1,0.1-0.1,0.1-0.1,0.2l-0.1,0.1c0,0.1-0.1,0.1-0.1,0.2
				c0,0,0,0.1-0.1,0.1c0,0.1-0.1,0.1-0.1,0.2v0.1c0,0.1,0,0.2,0,0.3c0,0,0,0,0,0.1v4h-9.7v-3.9v-0.1v-0.1l0,0c0-0.1,0-0.2,0-0.3
				c0,0,0,0,0-0.1s0-0.2-0.1-0.3c0,0,0,0,0-0.1s-0.1-0.2-0.1-0.2s0,0,0-0.1c-0.1-0.1-0.1-0.1-0.2-0.2c0,0,0,0-0.1-0.1
				s-0.1-0.1-0.2-0.2c0,0-0.1,0-0.1-0.1c-0.1,0-0.1-0.1-0.2-0.1s-0.1,0-0.2-0.1h-0.1c-7.8-2.2-14-8.3-16.1-16.1v-0.1
				c0-0.1,0-0.1-0.1-0.2c0,0,0-0.1-0.1-0.1c0-0.1-0.1-0.1-0.1-0.2l-0.1-0.1c0-0.1-0.1-0.1-0.1-0.1l-0.1-0.1c-0.1,0-0.1-0.1-0.2-0.1
				c0,0-0.1,0-0.1-0.1c-0.1,0-0.1-0.1-0.2-0.1h-0.1c-0.1,0-0.1,0-0.2,0H68h-0.1h-4.2v-9.6h4.2H68c0.1,0,0.1,0,0.2,0s0.1,0,0.2,0
				s0.1,0,0.2-0.1c0.1,0,0.1,0,0.2-0.1c0.1,0,0.1-0.1,0.2-0.1l0.1-0.1l0.1-0.1l0.1-0.1l0.1-0.1l0.1-0.1c0,0,0.1-0.1,0.1-0.2
				s0-0.1,0.1-0.2v-0.1c2.8-10,11.9-17,22.3-17s19.6,7,22.3,17c0,0,0,0.1,0.1,0.1v0.1c0,0.1,0.1,0.2,0.1,0.3l0,0
				c0.1,0.1,0.1,0.2,0.2,0.3l0,0c0.1,0.1,0.1,0.1,0.2,0.2c0,0,0,0,0.1,0s0.1,0.1,0.2,0.1h0.1c0.1,0,0.2,0.1,0.3,0.1c0,0,0,0,0.1,0
				s0.2,0,0.3,0l0,0h4.2V96h-4.4V96.1z M123.6,82.5h1.8V100h-1.8V82.5z"/>
		</g>
		<g>
			<path class="st3" d="M175.7,90.8l-27.9-17.6v9.5h-16.6v16.9h16.6v8.7L175.7,90.8z M134.8,96.1v-9.7h13h3.6h0.1v-6.6l17.5,11
				l-17.5,11v-5.7h-0.1h-3.6L134.8,96.1L134.8,96.1z"/>
		</g>
		<g>
			<path class="st3" d="M99.9,130.4H83V147h-8.7l17.6,27.9l17.6-27.9H100v-16.6H99.9z M91.9,168.1l-11-17.5h5.7l0,0V147v-13h9.7v13
				v3.6l0,0h6.6L91.9,168.1z"/>
		</g>
	</g>
</g>
</svg>
