<?xml version="1.0" encoding="utf-8"?>
<!-- Generator: Adobe Illustrator 21.0.0, SVG Export Plug-In . SVG Version: 6.00 Build 0)  -->
<svg version="1.1" id="lack_x5F_of_x5F_water" xmlns="http://www.w3.org/2000/svg" xmlns:xlink="http://www.w3.org/1999/xlink"
	 x="0px" y="0px" viewBox="0 0 200 200" style="enable-background:new 0 0 200 200;" xml:space="preserve">
<style type="text/css">
	.st0{fill:#EBF4E9;}
	.st1{fill:#398AC9;}
</style>
<g>
	<g>
		<g>
			<circle class="st0" cx="100" cy="100" r="86.2"/>
		</g>
	</g>
	<g>
		<g>
			<path class="st1" d="M99.9,200.1c-55.2,0-100-44.9-100-100c0-55.2,44.9-100,100-100c55.2,0,100,44.9,100,100
				C200,155.1,155.1,200.1,99.9,200.1z M99.9,3.6c-53.2,0-96.5,43.3-96.5,96.5s43.3,96.5,96.5,96.5s96.5-43.3,96.5-96.5
				S153.1,3.6,99.9,3.6z"/>
		</g>
	</g>
	<g>
		<path class="st1" d="M85,65.4c0-6.8-5.5-12.3-12.3-12.3s-12.3,5.5-12.3,12.3c0,6.1,4.5,11.2,10.4,12.1v45
			c-5.9,0.9-10.4,6-10.4,12.1c0,6.8,5.5,12.3,12.3,12.3S85,141.4,85,134.6c0-6.1-4.5-11.2-10.4-12.1v-45C80.4,76.6,85,71.6,85,65.4z
			 M81.3,134.6c0,4.7-3.9,8.6-8.6,8.6s-8.6-3.9-8.6-8.6s3.9-8.6,8.6-8.6C77.4,126.1,81.3,129.9,81.3,134.6z M72.8,74
			c-4.7,0-8.6-3.9-8.6-8.6s3.9-8.6,8.6-8.6s8.6,3.9,8.6,8.6S77.4,74,72.8,74z"/>
		<path class="st1" d="M133.1,122.5v-40V82v-0.5l0,0c-0.3-9.2-7.8-16.6-17.1-16.6H97.8l9.8-8.3c0.4-0.3,0.6-0.8,0.6-1.3
			s-0.1-1-0.4-1.3c-0.3-0.4-0.8-0.6-1.3-0.6s-1,0.1-1.3,0.4L91.6,65.2c-0.4,0.4-0.7,0.9-0.7,1.4s0.2,1.1,0.7,1.4l13.6,11.5
			c0.3,0.3,0.8,0.4,1.2,0.4c0.5,0,1.1-0.2,1.4-0.7c0.3-0.4,0.5-0.9,0.4-1.3c0-0.5-0.3-0.9-0.6-1.3l-9.8-8.3h18.2
			c7.4,0,13.4,6,13.4,13.4v0.5v40c-5.9,0.9-10.4,6-10.4,12.1c0,6.8,5.5,12.3,12.3,12.3s12.3-5.5,12.3-12.3
			C143.5,128.5,139,123.4,133.1,122.5z M131.2,143.2c-4.7,0-8.6-3.9-8.6-8.6s3.9-8.6,8.6-8.6s8.6,3.9,8.6,8.6S136,143.2,131.2,143.2
			z"/>
	</g>
</g>
</svg>
