<?xml version="1.0" encoding="utf-8"?>
<!-- Generator: Adobe Illustrator 21.0.0, SVG Export Plug-In . SVG Version: 6.00 Build 0)  -->
<svg version="1.1" id="lack_x5F_of_x5F_water" xmlns="http://www.w3.org/2000/svg" xmlns:xlink="http://www.w3.org/1999/xlink"
	 x="0px" y="0px" viewBox="0 0 200 200" style="enable-background:new 0 0 200 200;" xml:space="preserve">
<style type="text/css">
	.st0{fill:#EBF4E9;}
	.st1{fill:#398AC9;}
	.st2{fill:#FFFFFF;}
	.st3{fill:#3A89C9;}
</style>
<g>
	<g>
		<circle class="st0" cx="99.9" cy="100" r="86.3"/>
	</g>
	<g>
		<path class="st1" d="M99.9,200.2c-55.3,0-100.2-45-100.2-100.2C-0.2,44.8,44.8-0.1,100-0.1c55.3,0,100.2,45,100.2,100.2
			C200.2,155.2,155.2,200.2,99.9,200.2z M99.9,3.4C46.6,3.4,3.3,46.7,3.3,100s43.3,96.6,96.6,96.6s96.6-43.3,96.6-96.6
			S153.2,3.4,99.9,3.4z"/>
	</g>
	<g>
		<rect x="54.2" y="72.9" class="st2" width="21" height="27.6"/>
	</g>
	<g>
		<g>
			<g>
				<path class="st1" d="M75.2,74.6h-21c-1,0-1.8-0.8-1.8-1.8s0.8-1.8,1.8-1.8h21c1,0,1.8,0.8,1.8,1.8S76.2,74.6,75.2,74.6z"/>
			</g>
			<g>
				<path class="st1" d="M75.2,102.2h-21c-1,0-1.8-0.8-1.8-1.8s0.8-1.8,1.8-1.8h21c1,0,1.8,0.8,1.8,1.8S76.2,102.2,75.2,102.2z"/>
			</g>
		</g>
		<g>
			<path class="st1" d="M86.8,110.6H75.2c-1,0-1.8-0.8-1.8-1.8V64.6c0-1,0.8-1.8,1.8-1.8h11.6c1,0,1.8,0.8,1.8,1.8v44.2
				C88.6,109.8,87.8,110.6,86.8,110.6z M77,107h8V66.4h-8V107z"/>
		</g>
		<g>
			<g>
				<path class="st1" d="M127.9,126.4c-0.8,0-1.5-0.5-1.7-1.3c-4.8-18.3-19.8-32.7-38.3-36.6c-1-0.2-1.6-1.2-1.4-2.1
					c0.2-1,1.2-1.6,2.1-1.4c19.8,4.2,36,19.6,41.1,39.2c0.3,1-0.3,1.9-1.3,2.2C128.2,126.4,128,126.4,127.9,126.4z"/>
			</g>
			<g>
				<path class="st1" d="M120.8,139.4c-0.9,0-1.7-0.7-1.8-1.7c-1.1-19.3-13.4-36.5-31.4-43.8c-0.9-0.4-1.4-1.4-1-2.3s1.4-1.4,2.3-1
					c19.2,7.8,32.4,26.2,33.6,46.9C122.6,138.5,121.8,139.2,120.8,139.4L120.8,139.4z"/>
			</g>
			<g>
				<path class="st1" d="M108.9,139.2h-0.1c-1-0.1-1.7-0.9-1.7-1.9c0.1-1,0.1-2,0.1-3.1c0-16.1-7.4-30.8-20.3-40.5
					c-0.8-0.6-1-1.7-0.4-2.5s1.7-1,2.5-0.4c13.8,10.3,21.7,26.1,21.7,43.3c0,1.1,0,2.2-0.1,3.3C110.6,138.6,109.9,139.2,108.9,139.2
					z"/>
			</g>
			<g>
				<path class="st1" d="M127.9,126.4c-0.3,0-0.7-0.1-0.9-0.3c-0.8-0.5-1.1-1.6-0.6-2.5c1.4-2.2,3.8-3.6,6.4-3.6s5,1.3,6.4,3.6
					c0.5,0.8,0.3,1.9-0.6,2.5c-0.8,0.5-1.9,0.3-2.5-0.6c-0.7-1.2-2-1.9-3.4-1.9s-2.7,0.7-3.4,1.9
					C129.1,126.1,128.5,126.4,127.9,126.4z"/>
			</g>
			<g>
				<path class="st1" d="M120.8,139.2c-0.3,0-0.7-0.1-0.9-0.3c-0.8-0.5-1.1-1.6-0.6-2.5c2.3-3.7,6.3-5.9,10.7-5.9
					c4.4,0,8.4,2.2,10.7,5.9c0.5,0.8,0.3,1.9-0.6,2.5c-0.8,0.5-1.9,0.3-2.5-0.6c-1.7-2.7-4.5-4.3-7.7-4.3c-3.1,0-6,1.6-7.7,4.3
					C121.9,139,121.3,139.2,120.8,139.2z"/>
			</g>
			<g>
				<path class="st1" d="M139,139.2c-0.3,0-0.7-0.1-0.9-0.3c-0.8-0.5-1.1-1.6-0.6-2.5c2.3-3.7,6.3-5.9,10.7-5.9
					c4.4,0,8.4,2.2,10.7,5.9c0.5,0.8,0.3,1.9-0.6,2.5c-0.8,0.5-1.9,0.3-2.5-0.6c-1.7-2.7-4.5-4.3-7.7-4.3c-3.1,0-6,1.6-7.7,4.3
					C140.2,139,139.6,139.2,139,139.2z"/>
			</g>
			<g>
				<path class="st1" d="M90.6,139.2c-0.3,0-0.7-0.1-0.9-0.3c-0.8-0.5-1.1-1.6-0.6-2.5c2.3-3.7,6.3-5.9,10.7-5.9s8.4,2.2,10.7,5.9
					c0.5,0.8,0.3,1.9-0.6,2.5c-0.8,0.5-1.9,0.3-2.5-0.6c-1.7-2.7-4.5-4.3-7.7-4.3c-3.1,0-6,1.6-7.7,4.3
					C91.8,139,91.2,139.2,90.6,139.2z"/>
			</g>
			<g>
				<path class="st1" d="M72.3,139.2c-0.3,0-0.7-0.1-0.9-0.3c-0.8-0.5-1.1-1.6-0.6-2.5c2.3-3.7,6.3-5.9,10.7-5.9s8.4,2.2,10.7,5.9
					c0.5,0.8,0.3,1.9-0.6,2.5c-0.8,0.5-1.9,0.3-2.5-0.6c-1.7-2.7-4.5-4.3-7.7-4.3c-3.1,0-6,1.6-7.7,4.3
					C73.4,139,72.9,139.2,72.3,139.2z"/>
			</g>
			<g>
				
					<ellipse transform="matrix(0.7071 -0.7071 0.7071 0.7071 -43.0337 136.6419)" class="st3" cx="143.4" cy="120.3" rx="1.6" ry="1.6"/>
			</g>
			<g>
				
					<ellipse transform="matrix(0.7071 -0.7071 0.7071 0.7071 -34.4379 141.0338)" class="st3" cx="153" cy="112.1" rx="1.6" ry="1.6"/>
			</g>
			<g>
				
					<ellipse transform="matrix(0.7071 -0.7071 0.7071 0.7071 -38.0776 134.598)" class="st3" cx="143.4" cy="113.3" rx="1.6" ry="1.6"/>
			</g>
			<g>
				
					<ellipse transform="matrix(0.7071 -0.7071 0.7071 0.7071 -42.2649 132.1282)" class="st3" cx="138.4" cy="117.1" rx="1.6" ry="1.6"/>
			</g>
			<g>
				
					<ellipse transform="matrix(0.7071 -0.7071 0.7071 0.7071 -38.4695 128.4717)" class="st3" cx="135.8" cy="110.7" rx="1.6" ry="1.6"/>
			</g>
			<g>
				
					<ellipse transform="matrix(0.7071 -0.7071 0.7071 0.7071 -35.7008 123.71)" class="st3" cx="131.5" cy="104.9" rx="1.6" ry="1.6"/>
			</g>
			<g>
				
					<ellipse transform="matrix(0.7071 -0.7071 0.7071 0.7071 -42.5056 126.9784)" class="st3" cx="132" cy="114.8" rx="1.6" ry="1.6"/>
			</g>
			<g>
				
					<ellipse transform="matrix(0.7071 -0.7071 0.7071 0.7071 -58.5884 133.6954)" class="st3" cx="132.1" cy="137.6" rx="1.6" ry="1.6"/>
			</g>
			<g>
				
					<ellipse transform="matrix(0.7071 -0.7071 0.7071 0.7071 -56.5928 105.5568)" class="st3" cx="99.1" cy="121.1" rx="1.6" ry="1.6"/>
			</g>
			<g>
				
					<ellipse transform="matrix(0.7071 -0.7071 0.7071 0.7071 -70.3238 109.1737)" class="st3" cx="96.6" cy="139.5" rx="1.6" ry="1.6"/>
			</g>
			<g>
				
					<ellipse transform="matrix(0.7071 -0.7071 0.7071 0.7071 -61.4513 105.5464)" class="st3" cx="96.7" cy="127" rx="1.6" ry="1.6"/>
			</g>
			<g>
				
					<ellipse transform="matrix(0.7071 -0.7071 0.7071 0.7071 -59.579 109.974)" class="st3" cx="103" cy="126.9" rx="1.6" ry="1.6"/>
			</g>
			<g>
				
					<ellipse transform="matrix(0.7071 -0.7071 0.7071 0.7071 -60.9453 99.0976)" class="st3" cx="89.1" cy="123.1" rx="1.6" ry="1.6"/>
			</g>
		</g>
		<g>
			<path class="st1" d="M54.2,141.2c-1,0-1.8-0.8-1.8-1.8V55.4c0-1,0.8-1.8,1.8-1.8s1.8,0.8,1.8,1.8v84.1
				C56,140.5,55.2,141.2,54.2,141.2z"/>
		</g>
	</g>
</g>
</svg>
