<?xml version="1.0" encoding="utf-8"?>
<!-- Generator: Adobe Illustrator 21.0.0, SVG Export Plug-In . SVG Version: 6.00 Build 0)  -->
<svg version="1.1" id="lack_x5F_of_x5F_water" xmlns="http://www.w3.org/2000/svg" xmlns:xlink="http://www.w3.org/1999/xlink"
	 x="0px" y="0px" viewBox="0 0 200 200" style="enable-background:new 0 0 200 200;" xml:space="preserve">
<style type="text/css">
	.st0{fill:#EBF4E9;}
	.st1{fill:none;stroke:#398AC9;stroke-width:4;stroke-miterlimit:10;}
	.st2{fill:#FFFFFF;}
	.st3{fill:none;}
	.st4{fill:#3A89C9;}
</style>
<g>
	<circle class="st0" cx="100" cy="100" r="86.2"/>
	<circle class="st1" cx="100" cy="100" r="98.2"/>
	<g>
		<path class="st2" d="M99.5,107.9c0,9.6-7.8,17.5-17.5,17.5c-9.6,0-17.5-7.8-17.5-17.5V94.3h-7.8v13.7c0,14,11.4,25.4,25.4,25.4
			c14,0,25.4-11.4,25.4-25.4V94.3h-7.9V107.9z"/>
		<path class="st2" d="M81.6,136.6c0.2,0.2,0.3,0.5,0.5,0.7c0.1-0.2,0.3-0.5,0.5-0.7c-0.2,0-0.3,0-0.5,0
			C81.9,136.6,81.8,136.6,81.6,136.6z"/>
		<rect x="94.7" y="89.1" class="st3" width="16" height="1.8"/>
		<rect x="52.6" y="89.1" class="st3" width="16" height="1.8"/>
		<rect x="138.4" y="89.1" class="st3" width="16" height="1.8"/>
		<path class="st3" d="M142.3,85.8h7.9V72.2c0-14-11.4-25.4-25.4-25.4c-14,0-25.4,11.4-25.4,25.4v13.7h7.8V72.2
			c0-9.6,7.8-17.5,17.5-17.5c9.6,0,17.5,7.8,17.5,17.5V85.8z"/>
		<path class="st2" d="M82.1,151.3c-0.5,0.6-1,1.2-1.6,1.8c-2,2.1-4.3,4.5-4.3,8c0,3.3,2.7,5.9,5.9,5.9c3.3,0,5.9-2.7,5.9-5.9
			c0-3.4-2.3-5.8-4.3-8C83.1,152.5,82.6,151.9,82.1,151.3z"/>
		<polygon class="st4" points="52.6,89.1 68.6,89.1 68.6,91 71.9,91 71.9,85.8 67.9,85.8 67.9,45.1 64.5,45.1 64.5,85.8 56.7,85.8 
			56.7,45.1 53.4,45.1 53.4,85.8 49.3,85.8 49.3,91 52.6,91 		"/>
		<path class="st4" d="M153.6,85.8V72.2c0-15.8-12.9-28.7-28.7-28.7c-15.8,0-28.7,12.9-28.7,28.7v13.7h-4.8V91h3.3v-1.8h16V91h3.3
			v-5.2h-3.3V72.2c0-7.8,6.4-14.2,14.2-14.2c7.8,0,14.2,6.4,14.2,14.2v13.6h-3.9v8.5h3.9v40.7h3.3V94.3h7.9v40.7h3.3V94.3h4.1v-8.5
			H153.6z M124.8,54.7c-9.6,0-17.5,7.8-17.5,17.5v13.6h-7.8V72.2c0-14,11.4-25.4,25.4-25.4c14,0,25.4,11.4,25.4,25.4v13.7h-7.9V72.2
			C142.3,62.5,134.5,54.7,124.8,54.7z M154.4,91h-16v-1.8h16V91z"/>
		<path class="st4" d="M94.7,91h-3.3v3.3h4.8v13.6c0,7.8-6.4,14.2-14.2,14.2s-14.2-6.4-14.2-14.2V94.3h4.1V91h-3.3h-16h-3.3v3.3h4.1
			v13.7c0,13.2,9,24.4,21.2,27.7c0.1,0,0.1,0.1,0.2,0.1c3.3,0.9,5.6,4,5.6,7.4c0,0.9,0.7,1.7,1.7,1.7c0.9,0,1.7-0.7,1.7-1.7
			c0-3.4,2.3-6.5,5.6-7.4c0.1,0,0.1,0,0.2-0.1c12.2-3.3,21.2-14.5,21.2-27.7V94.3h3.2V91h-3.3H94.7z M82.1,137.3
			c-0.1-0.2-0.3-0.5-0.5-0.7c0.2,0,0.3,0,0.5,0c0.2,0,0.3,0,0.5,0C82.4,136.8,82.2,137,82.1,137.3z M107.5,107.9
			c0,14-11.4,25.4-25.4,25.4c-14,0-25.4-11.4-25.4-25.4V94.3h7.8v13.6c0,9.6,7.8,17.5,17.5,17.5c9.6,0,17.5-7.8,17.5-17.5V94.3h7.9
			V107.9z"/>
		<path class="st4" d="M83.8,147.6c0-0.9-0.7-1.7-1.7-1.7c-0.9,0-1.7,0.7-1.7,1.7c0,0.7-1.2,2-2.3,3.2c-2.2,2.3-5.3,5.5-5.3,10.3
			c0,5.1,4.2,9.3,9.3,9.3c5.1,0,9.3-4.2,9.3-9.3c0-4.7-3-7.9-5.3-10.3C85,149.6,83.8,148.3,83.8,147.6z M82.1,167
			c-3.3,0-5.9-2.7-5.9-5.9c0-3.4,2.3-5.8,4.3-8c0.6-0.6,1.1-1.2,1.6-1.8c0.5,0.6,1,1.2,1.6,1.8c2,2.1,4.3,4.5,4.3,8
			C88,164.3,85.4,167,82.1,167z"/>
	</g>
</g>
</svg>
