<?xml version="1.0" encoding="utf-8"?>
<!-- Generator: Adobe Illustrator 21.0.0, SVG Export Plug-In . SVG Version: 6.00 Build 0)  -->
<svg version="1.1" id="water_x5F_pressure" xmlns="http://www.w3.org/2000/svg" xmlns:xlink="http://www.w3.org/1999/xlink" x="0px"
	 y="0px" viewBox="0 0 200 200" style="enable-background:new 0 0 200 200;" xml:space="preserve">
<style type="text/css">
	.st0{fill:#ECF6EA;}
	.st1{fill:#398BCA;}
	.st2{fill:#FFFFFF;}
	.st3{fill:#3B89C9;}
</style>
<g>
	<g>
		<circle class="st0" cx="99.9" cy="100" r="86.1"/>
	</g>
	<g>
		<path class="st1" d="M99.9,200c-55.1,0-100-44.9-100-100S44.8,0,99.9,0s100,44.9,100,100S155.1,200,99.9,200z M99.9,3.6
			C46.7,3.6,3.5,46.9,3.5,100c0,53.2,43.3,96.4,96.4,96.4c53.2,0,96.4-43.3,96.4-96.4C196.5,46.9,153.1,3.6,99.9,3.6z"/>
	</g>
	<g>
		<circle class="st2" cx="99.5" cy="100.6" r="41.3"/>
	</g>
	<g>
		<g>
			<path class="st3" d="M110.6,86.9l-9.5,9.5c-0.4-0.1-0.7-0.2-1.1-0.2c-2.1,0-3.9,1.7-3.9,3.9c0,2.1,1.7,3.9,3.9,3.9
				c2.1,0,3.9-1.7,3.9-3.9c0-0.4-0.1-0.8-0.2-1.1l9.5-9.5c0.7-0.7,0.7-1.9,0-2.6C112.4,86.1,111.3,86.1,110.6,86.9z"/>
		</g>
		<g>
			<path class="st3" d="M99.9,76.6c1,0,1.8-0.8,1.8-1.8v-6.2c0-1-0.8-1.8-1.8-1.8s-1.8,0.8-1.8,1.8v6.2
				C98.1,75.8,98.9,76.6,99.9,76.6z"/>
		</g>
		<g>
			<path class="st3" d="M125.8,100c0,1,0.8,1.8,1.8,1.8h6.2c1,0,1.8-0.8,1.8-1.8s-0.8-1.8-1.8-1.8h-6.2
				C126.5,98.1,125.8,99,125.8,100z"/>
		</g>
		<g>
			<path class="st3" d="M72.4,98.1h-6.2c-1,0-1.8,0.8-1.8,1.8s0.8,1.8,1.8,1.8h6.2c1,0,1.8-0.8,1.8-1.8S73.4,98.1,72.4,98.1z"/>
		</g>
		<g>
			<path class="st3" d="M77.2,75c-0.7-0.7-1.9-0.7-2.6,0s-0.7,1.9,0,2.6L79,82c0.4,0.4,0.8,0.5,1.3,0.5s0.9-0.2,1.3-0.5
				c0.7-0.7,0.7-1.9,0-2.6L77.2,75z"/>
		</g>
		<g>
			<path class="st3" d="M125.3,75c-0.7-0.7-1.9-0.7-2.6,0l-4.4,4.4c-0.7,0.7-0.7,1.9,0,2.6c0.4,0.4,0.8,0.5,1.3,0.5s0.9-0.2,1.3-0.5
				l4.4-4.4C126,76.9,126,75.6,125.3,75z"/>
		</g>
		<g>
			<path class="st3" d="M185.5,94.6V91H165v-3.5h-9V91h-13.4c-4.1-19.8-21.7-34.6-42.7-34.6S61.4,71.3,57.2,91H43.8v-3.5h-9V91H14.4
				v3.6h20.4v10.6H14.4v3.6h20.4v3.5h9v-3.5h13.4c4.1,19.8,21.7,34.6,42.7,34.6s38.5-14.9,42.7-34.6H156v3.5h9v-3.5h20.4v-3.6H165
				V94.6H185.5z M40.3,108.8h-1.8V91.2h1.8V108.8z M43.9,105.2V94.6h12.8c-0.2,1.7-0.3,3.5-0.3,5.3s0.1,3.6,0.3,5.3L43.9,105.2
				L43.9,105.2z M99.9,140c-22,0-39.9-17.9-39.9-39.9s17.9-39.9,39.9-39.9s39.9,17.9,39.9,39.9C139.9,122.1,122,140,99.9,140z
				 M143.2,105.2c0.2-1.7,0.3-3.5,0.3-5.3s-0.1-3.6-0.3-5.3H156v10.6L143.2,105.2L143.2,105.2z M161.4,108.8h-1.8V91.2h1.8V108.8z"
				/>
		</g>
		<g>
			<path class="st3" d="M87.5,123h24.8v-9H87.5V123z M91.2,117.6h17.5v1.8H91.2V117.6z"/>
		</g>
	</g>
</g>
</svg>
