<?xml version="1.0" encoding="utf-8"?>
<!-- Generator: Adobe Illustrator 21.0.0, SVG Export Plug-In . SVG Version: 6.00 Build 0)  -->
<svg version="1.1" id="water_x5F_quality" xmlns="http://www.w3.org/2000/svg" xmlns:xlink="http://www.w3.org/1999/xlink" x="0px"
	 y="0px" viewBox="0 0 200 200" style="enable-background:new 0 0 200 200;" xml:space="preserve">
<style type="text/css">
	.st0{fill:#ECF6EA;}
	.st1{fill:#398BCA;}
	.st2{fill:#FFFFFF;}
	.st3{fill:#3B89C9;}
</style>
<g>
	<circle class="st0" cx="99.9" cy="100" r="86.1"/>
</g>
<g>
	<path class="st1" d="M99.9,200c-55.1,0-100-44.9-100-100S44.8,0,99.9,0s100,44.9,100,100S155.1,200,99.9,200z M99.9,3.6
		C46.7,3.6,3.5,46.9,3.5,100c0,53.2,43.3,96.4,96.4,96.4c53.2,0,96.4-43.3,96.4-96.4C196.5,46.9,153.1,3.6,99.9,3.6z"/>
</g>
<g>
	<g>
		<path class="st2" d="M67.5,149.9h64.9c1.3,0,2.4-1.2,2.4-2.7v-46.9c-0.9,0.8-1.7,2.2-2.7,4.1c-1.6,3-3.6,6.8-7.7,6.8
			c-4.2,0-6.1-3.8-7.7-6.8s-2.7-4.8-4.5-4.8s-2.9,1.8-4.5,4.8s-3.6,6.8-7.7,6.8c-4.2,0-6.1-3.8-7.7-6.8s-2.7-4.8-4.5-4.8
			s-2.9,1.8-4.5,4.8s-3.6,6.8-7.7,6.8c-4.2,0-6.1-3.8-7.7-6.8c-1-1.9-1.8-3.3-2.7-4.1v46.9C65.1,148.6,66.2,149.9,67.5,149.9z"/>
	</g>
	<g>
		<path class="st2" d="M99.9,77.2c5.1,0,9.3-4.2,9.3-9.3c0-5.2-3.5-8.9-6.5-12.1c-1-1.1-2-2.1-2.8-3.1c-0.8,1-1.8,2-2.8,3.1
			c-3.1,3.2-6.5,6.8-6.5,12.1C90.6,73.1,94.8,77.2,99.9,77.2z"/>
	</g>
	<g>
		<path class="st3" d="M99.9,80.9c7.1,0,12.9-5.8,12.9-12.9c0-6.7-4.2-11.1-7.5-14.6c-1.8-1.9-3.6-3.8-3.6-5.1c0-1-0.8-1.8-1.8-1.8
			s-1.8,0.8-1.8,1.8c0,1.3-1.7,3.1-3.6,5.1C91.1,56.9,87,61.2,87,68C87,75.1,92.8,80.9,99.9,80.9z M97.2,55.9c1-1.1,2-2.1,2.8-3.1
			c0.8,1,1.8,2,2.8,3.1c3.1,3.2,6.5,6.8,6.5,12.1c0,5.1-4.2,9.3-9.3,9.3c-5.1,0-9.3-4.2-9.3-9.3C90.6,62.8,94.1,59.1,97.2,55.9z"/>
	</g>
	<g>
		<path class="st3" d="M134.8,76.2v19.9c-3,0.9-4.6,4-5.9,6.5c-1.6,3-2.7,4.8-4.5,4.8s-2.9-1.8-4.5-4.8s-3.6-6.8-7.7-6.8
			c-4.2,0-6.1,3.8-7.7,6.8s-2.7,4.8-4.5,4.8s-2.9-1.8-4.5-4.8s-3.6-6.8-7.7-6.8c-4.2,0-6.1,3.8-7.7,6.8s-2.7,4.8-4.5,4.8
			s-2.9-1.8-4.5-4.8c-1.3-2.5-3-5.6-5.9-6.5V76.2h-3.6v70.9c0,3.5,2.7,6.4,6.1,6.4h64.9c3.3,0,6.1-2.9,6.1-6.4V76.2H134.8z
			 M134.8,147.1c0,1.5-1.1,2.7-2.4,2.7H67.5c-1.3,0-2.4-1.2-2.4-2.7v-46.9c0.9,0.8,1.7,2.2,2.7,4.1c1.6,3,3.6,6.8,7.7,6.8
			c4.2,0,6.1-3.8,7.7-6.8s2.7-4.8,4.5-4.8s2.9,1.8,4.5,4.8s3.6,6.8,7.7,6.8c4.2,0,6.1-3.8,7.7-6.8s2.7-4.8,4.5-4.8s2.9,1.8,4.5,4.8
			s3.6,6.8,7.7,6.8c4.2,0,6.1-3.8,7.7-6.8c1-1.9,1.8-3.3,2.7-4.1L134.8,147.1L134.8,147.1z"/>
	</g>
</g>
</svg>
