<?xml version="1.0" encoding="utf-8"?>
<!-- Generator: Adobe Illustrator 21.0.0, SVG Export Plug-In . SVG Version: 6.00 Build 0)  -->
<svg version="1.1" id="water_x5F_schedule" xmlns="http://www.w3.org/2000/svg" xmlns:xlink="http://www.w3.org/1999/xlink" x="0px"
	 y="0px" viewBox="0 0 200 200" style="enable-background:new 0 0 200 200;" xml:space="preserve">
<style type="text/css">
	.st0{fill:#ECF6EA;}
	.st1{fill:#398BCA;}
	.st2{fill:#FFFFFF;}
	.st3{fill:#3B89C9;}
</style>
<g>
	<g>
		<circle class="st0" cx="99.9" cy="100" r="86.1"/>
	</g>
	<g>
		<path class="st1" d="M99.9,200c-55.1,0-100-44.9-100-100S44.8,0,99.9,0s100,44.9,100,100S155.1,200,99.9,200z M99.9,3.6
			C46.7,3.6,3.5,46.9,3.5,100c0,53.2,43.3,96.4,96.4,96.4c53.2,0,96.4-43.3,96.4-96.4C196.5,46.9,153.1,3.6,99.9,3.6z"/>
	</g>
	<g>
		<circle class="st2" cx="121.4" cy="119.1" r="29.8"/>
	</g>
	<g>
		<g>
			<g>
				<path class="st3" d="M85,153.1c-21.3,0-38.6-17.3-38.6-38.6c0-20.4,13.1-34.2,23.7-45.3c7-7.3,13-13.7,13-19.7l0,0
					c0-1,0.8-1.8,1.8-1.8l0,0c1,0,1.8,0.8,1.8,1.8l0,0c0,6,6,12.4,13,19.7c3.8,4,8.2,8.5,12,13.5c0.6,0.8,0.5,1.9-0.3,2.5
					s-1.9,0.5-2.5-0.3c-3.7-4.8-7.8-9.1-11.7-13.2c-5.1-5.4-9.8-10.3-12.2-15.2c-2.5,4.9-7.1,9.8-12.2,15.2
					C62.6,82.4,50,95.6,50,114.6c0,19.3,15.7,34.9,34.9,34.9c4.7,0,9.2-0.9,13.5-2.7c0.9-0.4,2,0,2.4,1c0.4,0.9,0,2-1,2.4
					C95.1,152.1,90.1,153.1,85,153.1z"/>
			</g>
		</g>
		<g>
			<g>
				<path class="st3" d="M121.1,151.5c-17.9,0-32.4-14.5-32.4-32.4s14.5-32.4,32.4-32.4s32.4,14.5,32.4,32.4
					S138.9,151.5,121.1,151.5z M121.1,90.2c-15.9,0-28.8,12.9-28.8,28.8s12.9,28.8,28.8,28.8s28.8-12.9,28.8-28.8
					C149.8,103.1,136.9,90.2,121.1,90.2z"/>
			</g>
		</g>
		<g>
			<g>
				<g>
					<path class="st3" d="M121.4,99.6c-1,0-1.8-0.8-1.8-1.8v-2.5c0-1,0.8-1.8,1.8-1.8s1.8,0.8,1.8,1.8v2.5
						C123.2,98.8,122.4,99.6,121.4,99.6z"/>
				</g>
			</g>
			<g>
				<g>
					<path class="st3" d="M121.4,144.5c-1,0-1.8-0.8-1.8-1.8v-2.5c0-1,0.8-1.8,1.8-1.8s1.8,0.8,1.8,1.8v2.5
						C123.2,143.6,122.4,144.5,121.4,144.5z"/>
				</g>
			</g>
			<g>
				<g>
					<g>
						<path class="st3" d="M103.8,111.6c-0.3,0-0.6-0.1-0.8-0.2l-2.2-1.2c-0.9-0.5-1.2-1.6-0.8-2.4c0.5-0.9,1.6-1.2,2.4-0.8l2.2,1.2
							c0.9,0.5,1.2,1.6,0.8,2.4C105,111.2,104.4,111.6,103.8,111.6z"/>
					</g>
				</g>
				<g>
					<g>
						<path class="st3" d="M110.9,103.1c-0.6,0-1.2-0.3-1.5-0.8l-1.4-2.1c-0.6-0.8-0.3-2,0.5-2.5c0.8-0.6,2-0.3,2.5,0.5l1.4,2.1
							c0.6,0.8,0.3,2-0.5,2.5C111.6,103.1,111.3,103.1,110.9,103.1z"/>
					</g>
				</g>
				<g>
					<g>
						<path class="st3" d="M101.5,131.1c-0.7,0-1.3-0.4-1.6-1c-0.5-0.9-0.1-2,0.8-2.4l2.2-1.2c0.9-0.5,2-0.1,2.4,0.8
							c0.5,0.9,0.1,2-0.8,2.4l-2.2,1.2C102.1,131.1,101.8,131.1,101.5,131.1z"/>
					</g>
				</g>
				<g>
					<g>
						<path class="st3" d="M109.5,140.5c-0.4,0-0.7-0.1-1-0.3c-0.8-0.6-1-1.7-0.5-2.5l1.4-2.1c0.6-0.8,1.7-1,2.5-0.5
							c0.8,0.6,1,1.7,0.5,2.5l-1.4,2.1C110.8,140.2,110.1,140.5,109.5,140.5z"/>
					</g>
				</g>
				<g>
					<g>
						<path class="st3" d="M100.5,120.9H98c-1,0-1.8-0.8-1.8-1.8s0.8-1.8,1.8-1.8h2.5c1,0,1.8,0.8,1.8,1.8S101.5,120.9,100.5,120.9z
							"/>
					</g>
				</g>
			</g>
			<g>
				<g>
					<g>
						<path class="st3" d="M138.4,111.6c-0.7,0-1.3-0.4-1.6-1c-0.5-0.9-0.1-2,0.8-2.4l2.2-1.2c0.9-0.5,2-0.1,2.4,0.8
							c0.5,0.9,0.1,2-0.8,2.4l-2.2,1.2C139,111.6,138.8,111.6,138.4,111.6z"/>
					</g>
				</g>
				<g>
					<g>
						<path class="st3" d="M131.2,103.1c-0.4,0-0.7-0.1-1-0.3c-0.8-0.6-1-1.7-0.5-2.5l1.4-2.1c0.6-0.8,1.7-1,2.5-0.5
							c0.8,0.6,1,1.7,0.5,2.5l-1.4,2.1C132.4,102.9,131.8,103.1,131.2,103.1z"/>
					</g>
				</g>
				<g>
					<g>
						<path class="st3" d="M140.8,131.1c-0.3,0-0.6-0.1-0.8-0.2l-2.2-1.2c-0.9-0.5-1.2-1.6-0.8-2.4c0.5-0.9,1.6-1.2,2.4-0.8l2.2,1.2
							c0.9,0.5,1.2,1.6,0.8,2.4C142,130.8,141.3,131.1,140.8,131.1z"/>
					</g>
				</g>
				<g>
					<g>
						<path class="st3" d="M132.6,140.5c-0.6,0-1.2-0.3-1.5-0.8l-1.4-2.1c-0.6-0.8-0.3-2,0.5-2.5c0.8-0.6,2-0.3,2.5,0.5l1.4,2.1
							c0.6,0.8,0.3,2-0.5,2.5C133.3,140.4,133,140.5,132.6,140.5z"/>
					</g>
				</g>
				<g>
					<g>
						<path class="st3" d="M144.2,120.9h-2.5c-1,0-1.8-0.8-1.8-1.8s0.8-1.8,1.8-1.8h2.5c1,0,1.8,0.8,1.8,1.8
							S145.2,120.9,144.2,120.9z"/>
					</g>
				</g>
			</g>
		</g>
		<g>
			<g>
				<path class="st3" d="M128,120.9h-8.5v-15.5c0-1,0.8-1.8,1.8-1.8s1.8,0.8,1.8,1.8v11.9h4.8c1,0,1.8,0.8,1.8,1.8
					S129.1,120.9,128,120.9z"/>
			</g>
		</g>
	</g>
</g>
</svg>
