<?xml version="1.0" encoding="utf-8"?>
<!-- Generator: Adobe Illustrator 21.0.0, SVG Export Plug-In . SVG Version: 6.00 Build 0)  -->
<svg version="1.1" id="lack_x5F_of_x5F_water" xmlns="http://www.w3.org/2000/svg" xmlns:xlink="http://www.w3.org/1999/xlink"
	 x="0px" y="0px" viewBox="0 0 200 200" style="enable-background:new 0 0 200 200;" xml:space="preserve">
<style type="text/css">
	.st0{fill:#EBF4E9;}
	.st1{fill:#398AC9;}
	.st2{fill:#FFFFFF;}
	.st3{fill:#3A89C9;}
</style>
<g>
	<g>
		<circle class="st0" cx="99.9" cy="100.1" r="86.1"/>
	</g>
	<g>
		<path class="st1" d="M100,200C44.9,200,0,155.1,0,100S44.9,0,100,0s100,44.9,100,100S155.1,200,100,200z M100,3.6
			C46.8,3.6,3.6,46.9,3.6,100c0,53.2,43.3,96.4,96.4,96.4s96.4-43.3,96.4-96.4S153.1,3.6,100,3.6z"/>
	</g>
	<g>
		<circle class="st2" cx="121.4" cy="119.1" r="29.8"/>
	</g>
	<g>
		<g>
			<g>
				<path class="st3" d="M87,151.1c-21.3,0-38.6-17.3-38.6-38.6c0-20.4,13.1-34.2,23.7-45.3c7-7.3,13-13.7,13-19.7l0,0
					c0-1,0.8-1.8,1.8-1.8l0,0c1,0,1.8,0.8,1.8,1.8l0,0c0,6,6,12.4,13,19.7c3.8,4,8.2,8.5,12,13.5c0.6,0.8,0.5,1.9-0.3,2.5
					s-1.9,0.5-2.5-0.3c-3.7-4.8-7.8-9.1-11.7-13.2c-5.1-5.4-9.8-10.3-12.2-15.2c-2.5,4.9-7.1,9.8-12.2,15.2
					c-10.1,10.6-22.7,23.8-22.7,42.8c0,19.3,15.7,34.9,34.9,34.9c4.7,0,9.2-0.9,13.5-2.7c0.9-0.4,2,0,2.4,1c0.4,0.9,0,2-1,2.4
					C97.2,150.1,92.1,151.1,87,151.1z"/>
			</g>
		</g>
		<g>
			<g>
				<path class="st3" d="M123.1,149.5c-17.9,0-32.4-14.5-32.4-32.4s14.5-32.4,32.4-32.4s32.4,14.5,32.4,32.4
					S140.9,149.5,123.1,149.5z M123.1,88.4c-15.9,0-28.8,12.9-28.8,28.8s12.9,28.8,28.8,28.8s28.8-12.9,28.8-28.8
					C151.8,101.2,138.9,88.4,123.1,88.4z"/>
			</g>
		</g>
		<g>
			<g>
				<polygon class="st3" points="153.2,121.4 93.2,121.4 96.2,101.9 149.9,101.9 				"/>
			</g>
			<g>
				<g>
					<ellipse class="st2" cx="110.3" cy="111.6" rx="8.1" ry="5"/>
				</g>
				<g>
					<ellipse class="st2" cx="136.1" cy="111.6" rx="8.1" ry="5"/>
				</g>
			</g>
		</g>
	</g>
</g>
</svg>
